<svg width="69" height="72" viewBox="0 0 69 72" fill="none" xmlns="http://www.w3.org/2000/svg">
<path d="M51.5162 59.408C50.2377 56.7493 48.2962 53.3412 47.2528 51.5812C47.7315 51.7632 48.3629 51.9905 49.1803 52.3654C51.2263 53.535 52.4285 54.1781 56.1027 54.0423C62.6796 53.7992 66.3577 53.2801 67.1191 52.0511C67.7554 51.0239 68.8716 48.9527 68.7905 46.2023C68.6222 40.4897 68.5404 38.0821 66.5544 36.1244C64.2822 33.8845 59.4709 31.8084 56.4873 28.8016C55.9445 28.2547 55.6237 27.7314 55.9593 27.3296C56.7397 26.3953 59.1359 24.851 60.7517 20.876C62.7512 15.9569 64.1612 12.2972 64.1496 10.6364C64.1187 6.2318 64.0937 4.61126 63.1554 3.48598C62.2731 2.42792 61.0708 1.33986 59.5983 0.850035L59.5889 0.846922C58.0296 0.32823 56.1727 -0.289438 52.0368 0.149343C48.8343 0.489103 45.4305 0.929411 42.7092 2.22743C40.0912 3.47613 37.9937 4.59972 36.6321 5.93045C35.1022 7.42572 33.864 8.74819 33.1955 10.4919C32.097 13.3574 31.3445 17.7514 30.4603 21.4181C30.1845 22.5618 29.9906 22.2983 29.5384 21.2082C27.4564 16.1893 25.9102 13.8311 23.2277 12.5349C20.7993 11.3615 17.8897 10.0317 15.0281 9.89242C12.2843 9.75891 9.76491 9.72882 7.99084 10.3166L7.9088 10.3438C5.82167 11.035 3.52938 11.7942 2.03936 14.2228C0.42445 16.855 -0.977764 20.4832 0.934956 25.3417C2.31025 28.8351 4.43427 32.9502 6.97681 34.4366C9.1863 35.7282 18.7559 33.6034 16.6193 36.9923C16.2808 37.5292 13.7653 38.0957 10.7787 39.2348C8.3275 40.1697 5.8986 41.1419 4.1681 42.6235C2.0615 44.4272 0.225651 46.2002 0.116772 48.7971C0.00845718 51.3805 -0.311344 54.843 0.952045 57.3994C2.13317 59.7895 5.51197 64.4612 8.40518 64.4647C10.7755 64.4676 14.976 64.3716 20.3755 60.5484C22.8105 58.8244 25.5795 55.9376 28.1785 53.4147C28.9323 52.6829 28.6418 53.0784 28.5957 53.874C28.4834 55.8094 28.0632 60.1173 30.0231 63.7074C31.3197 66.0825 33.1749 69.271 36.0005 70.566C38.8911 71.8907 43.2747 72.4664 45.7107 71.5616C47.6003 70.8598 48.9104 70.4912 50.1595 68.5506C51.6324 66.2621 52.8376 62.156 51.5162 59.408Z" fill="#1B1B1B"/>
</svg>
