<svg width="305" height="284" viewBox="0 0 305 284" fill="none" xmlns="http://www.w3.org/2000/svg">
<path d="M187.637 53.394C189.646 45.5073 191.198 37.7603 191.571 31.6647C192.172 21.8274 183.351 14.6008 175.668 8.52282C161.629 -2.58332 149.134 -0.282371 139.795 1.4848C133.167 2.73893 130 10.4946 124.611 24.3282C120.524 34.8195 124.427 53.3135 128.73 68.9994C123.94 58.0929 116.042 51.4947 98.6 39.7919C85.8476 31.2357 60.2439 33.3499 46.7102 35.6284C39.8519 36.783 36.7324 43.1126 35.1148 47.2269C27.3936 66.8651 33.8296 88.1797 39.7844 101.372C43.6465 109.929 55.8851 117.968 64.6467 122.289C66.3424 123.125 68.9334 122.983 63.128 124.393C43.4064 129.181 27.0582 131.466 23.3206 133.346C9.28256 140.41 2.64529 158.667 0.714844 170.141C-1.32907 182.289 1.42212 192.982 3.79895 198.025C7.47849 205.832 17.4378 211.203 24.4604 214.498C34.3907 219.156 50.5448 214.863 65.1981 208.749C65.9411 208.439 66.6559 208.097 67.3436 207.727C65.1194 210.508 63.1601 213.158 61.9011 215.25C59.9318 218.523 59.6974 224.859 59.5888 232.25C59.3309 249.799 84.6365 269.222 90.8859 274.371C103.036 284.381 116.455 284.807 124.505 283.422C132.942 281.971 143.107 268.898 157.227 247.562C169.133 229.574 168.18 210.219 169.435 202.244C172.344 183.76 196.253 227.235 218.603 237.419C233.33 244.129 256.301 240.347 264.605 238.481C272.133 236.789 277.435 231.32 285.316 221.7C293.088 212.213 295.56 197.767 296.494 173.956C297.036 160.142 281.136 141.54 264.578 125.324C273.03 122.748 280.034 114.939 286.958 108.126C295.254 99.9632 300.113 81.3157 304.193 57.7709C306.004 47.3231 304.354 39.7686 303.26 35.3711C302.161 30.9572 298.953 27.4759 295.568 24.5125C292.065 21.4452 287.281 20.0502 278.929 19.0656C263.244 17.2167 243.588 20.1064 227.35 23.1291C211.349 26.1075 204.815 33.3436 192.821 45.9437C190.887 48.5656 189.166 51.0384 187.637 53.394Z" fill="#1B1B1B"/>
<path d="M94.2965 118.228C93.2578 118.228 92.3268 117.975 91.5035 117.468C90.6801 116.949 90.0278 116.208 89.5465 115.245C89.0778 114.282 88.8435 113.123 88.8435 111.768C88.8435 110.767 88.9828 109.868 89.2615 109.07C89.5401 108.272 89.9265 107.594 90.4205 107.037C90.9145 106.48 91.4971 106.055 92.1685 105.764C92.8398 105.46 93.5745 105.308 94.3725 105.308C95.1198 105.308 95.7848 105.46 96.3675 105.764C96.9628 106.055 97.4378 106.416 97.7925 106.847L96.9375 107.816C96.6081 107.461 96.2281 107.189 95.7975 106.999C95.3795 106.796 94.9108 106.695 94.3915 106.695C93.6188 106.695 92.9348 106.904 92.3395 107.322C91.7568 107.727 91.3008 108.304 90.9715 109.051C90.6421 109.798 90.4775 110.691 90.4775 111.73C90.4775 112.769 90.6358 113.674 90.9525 114.447C91.2818 115.207 91.7378 115.796 92.3205 116.214C92.9158 116.632 93.6125 116.841 94.4105 116.841C94.9931 116.841 95.5125 116.733 95.9685 116.518C96.4371 116.29 96.8678 115.961 97.2605 115.53L98.0775 116.442C97.5708 117.012 97.0135 117.455 96.4055 117.772C95.8101 118.076 95.1071 118.228 94.2965 118.228ZM103.859 118.228C103.112 118.228 102.409 118.038 101.75 117.658C101.104 117.278 100.578 116.727 100.173 116.005C99.7803 115.283 99.584 114.415 99.584 113.402C99.584 112.363 99.7803 111.483 100.173 110.761C100.578 110.039 101.104 109.488 101.75 109.108C102.409 108.728 103.112 108.538 103.859 108.538C104.619 108.538 105.322 108.728 105.968 109.108C106.614 109.488 107.133 110.039 107.526 110.761C107.931 111.483 108.134 112.363 108.134 113.402C108.134 114.415 107.931 115.283 107.526 116.005C107.133 116.727 106.614 117.278 105.968 117.658C105.322 118.038 104.619 118.228 103.859 118.228ZM103.859 116.936C104.391 116.936 104.853 116.79 105.246 116.499C105.651 116.195 105.962 115.777 106.177 115.245C106.405 114.713 106.519 114.099 106.519 113.402C106.519 112.693 106.405 112.072 106.177 111.54C105.962 110.995 105.651 110.577 105.246 110.286C104.853 109.982 104.391 109.83 103.859 109.83C103.34 109.83 102.877 109.982 102.472 110.286C102.067 110.577 101.75 110.995 101.522 111.54C101.307 112.072 101.199 112.693 101.199 113.402C101.199 114.099 101.307 114.713 101.522 115.245C101.75 115.777 102.067 116.195 102.472 116.499C102.877 116.79 103.34 116.936 103.859 116.936ZM109.898 113.839V112.642H114.268V113.839H109.898ZM116.73 118V105.536H119.846C121.125 105.536 122.202 105.777 123.076 106.258C123.95 106.739 124.608 107.442 125.052 108.367C125.508 109.279 125.736 110.394 125.736 111.711C125.736 113.041 125.508 114.175 125.052 115.112C124.608 116.049 123.956 116.765 123.095 117.259C122.233 117.753 121.176 118 119.922 118H116.73ZM118.307 116.708H119.732C120.707 116.708 121.518 116.512 122.164 116.119C122.81 115.726 123.291 115.156 123.608 114.409C123.937 113.662 124.102 112.762 124.102 111.711C124.102 110.66 123.937 109.773 123.608 109.051C123.291 108.329 122.81 107.778 122.164 107.398C121.518 107.018 120.707 106.828 119.732 106.828H118.307V116.708ZM132.01 118.228C131.187 118.228 130.439 118.038 129.768 117.658C129.097 117.265 128.565 116.708 128.172 115.986C127.779 115.264 127.583 114.403 127.583 113.402C127.583 112.389 127.779 111.521 128.172 110.799C128.577 110.077 129.097 109.52 129.73 109.127C130.363 108.734 131.028 108.538 131.725 108.538C132.51 108.538 133.175 108.715 133.72 109.07C134.277 109.425 134.695 109.925 134.974 110.571C135.265 111.217 135.411 111.983 135.411 112.87C135.411 113.035 135.405 113.199 135.392 113.364C135.392 113.516 135.379 113.649 135.354 113.763H128.723L128.704 112.642H134.043C134.043 111.705 133.84 110.995 133.435 110.514C133.042 110.02 132.485 109.773 131.763 109.773C131.332 109.773 130.908 109.9 130.49 110.153C130.072 110.406 129.73 110.799 129.464 111.331C129.198 111.85 129.065 112.528 129.065 113.364C129.078 114.162 129.223 114.833 129.502 115.378C129.793 115.91 130.173 116.309 130.642 116.575C131.111 116.841 131.63 116.974 132.2 116.974C132.643 116.974 133.055 116.917 133.435 116.803C133.828 116.676 134.182 116.505 134.499 116.29L135.05 117.278C134.657 117.557 134.208 117.785 133.701 117.962C133.207 118.139 132.643 118.228 132.01 118.228ZM140.106 118.228C139.434 118.228 138.801 118.114 138.206 117.886C137.61 117.645 137.097 117.316 136.667 116.898L137.389 115.986C137.794 116.315 138.212 116.569 138.643 116.746C139.086 116.923 139.593 117.012 140.163 117.012C140.771 117.012 141.227 116.873 141.531 116.594C141.835 116.303 141.987 115.961 141.987 115.568C141.987 115.251 141.885 114.992 141.683 114.789C141.48 114.574 141.22 114.396 140.904 114.257C140.587 114.105 140.251 113.966 139.897 113.839C139.441 113.674 139.004 113.484 138.586 113.269C138.168 113.041 137.826 112.762 137.56 112.433C137.306 112.091 137.18 111.667 137.18 111.16C137.18 110.413 137.458 109.792 138.016 109.298C138.586 108.791 139.371 108.538 140.372 108.538C140.942 108.538 141.474 108.639 141.968 108.842C142.462 109.032 142.886 109.279 143.241 109.583L142.519 110.476C142.202 110.248 141.866 110.071 141.512 109.944C141.17 109.817 140.79 109.754 140.372 109.754C139.789 109.754 139.358 109.887 139.08 110.153C138.814 110.419 138.681 110.729 138.681 111.084C138.681 111.363 138.763 111.597 138.928 111.787C139.092 111.964 139.32 112.123 139.612 112.262C139.916 112.389 140.258 112.522 140.638 112.661C141.119 112.826 141.575 113.022 142.006 113.25C142.449 113.478 142.804 113.769 143.07 114.124C143.348 114.466 143.488 114.916 143.488 115.473C143.488 115.967 143.355 116.423 143.089 116.841C142.835 117.259 142.455 117.595 141.949 117.848C141.455 118.101 140.84 118.228 140.106 118.228ZM145.653 118V108.766H147.211V118H145.653ZM146.432 106.866C146.128 106.866 145.874 106.777 145.672 106.6C145.482 106.41 145.387 106.157 145.387 105.84C145.387 105.536 145.482 105.289 145.672 105.099C145.874 104.909 146.128 104.814 146.432 104.814C146.736 104.814 146.983 104.909 147.173 105.099C147.375 105.289 147.477 105.536 147.477 105.84C147.477 106.157 147.375 106.41 147.173 106.6C146.983 106.777 146.736 106.866 146.432 106.866ZM153.445 122.256C152.697 122.256 152.032 122.155 151.45 121.952C150.88 121.762 150.43 121.483 150.101 121.116C149.784 120.749 149.626 120.299 149.626 119.767C149.626 119.374 149.746 118.994 149.987 118.627C150.227 118.272 150.557 117.956 150.975 117.677V117.601C150.747 117.462 150.55 117.265 150.386 117.012C150.234 116.759 150.158 116.455 150.158 116.1C150.158 115.707 150.265 115.365 150.481 115.074C150.696 114.783 150.924 114.555 151.165 114.39V114.314C150.861 114.061 150.582 113.719 150.329 113.288C150.088 112.857 149.968 112.37 149.968 111.825C149.968 111.154 150.126 110.571 150.443 110.077C150.759 109.583 151.184 109.203 151.716 108.937C152.248 108.671 152.824 108.538 153.445 108.538C153.698 108.538 153.939 108.563 154.167 108.614C154.395 108.652 154.591 108.703 154.756 108.766H157.967V109.963H156.048V110.039C156.263 110.242 156.447 110.495 156.599 110.799C156.751 111.103 156.827 111.464 156.827 111.882C156.827 112.528 156.675 113.092 156.371 113.573C156.067 114.054 155.661 114.428 155.155 114.694C154.648 114.947 154.078 115.074 153.445 115.074C153.217 115.074 152.982 115.049 152.742 114.998C152.501 114.935 152.273 114.852 152.058 114.751C151.893 114.89 151.754 115.049 151.64 115.226C151.526 115.391 151.469 115.6 151.469 115.853C151.469 116.144 151.583 116.385 151.811 116.575C152.051 116.765 152.482 116.86 153.103 116.86H154.889C155.965 116.86 156.77 117.037 157.302 117.392C157.846 117.734 158.119 118.291 158.119 119.064C158.119 119.634 157.929 120.16 157.549 120.641C157.169 121.122 156.63 121.509 155.934 121.8C155.237 122.104 154.407 122.256 153.445 122.256ZM153.445 114.029C153.799 114.029 154.122 113.94 154.414 113.763C154.718 113.586 154.958 113.332 155.136 113.003C155.313 112.661 155.402 112.268 155.402 111.825C155.402 111.154 155.212 110.628 154.832 110.248C154.452 109.868 153.989 109.678 153.445 109.678C152.9 109.678 152.438 109.868 152.058 110.248C151.678 110.628 151.488 111.154 151.488 111.825C151.488 112.268 151.576 112.661 151.754 113.003C151.931 113.332 152.165 113.586 152.457 113.763C152.761 113.94 153.09 114.029 153.445 114.029ZM153.673 121.173C154.268 121.173 154.781 121.084 155.212 120.907C155.655 120.73 155.997 120.495 156.238 120.204C156.478 119.913 156.599 119.609 156.599 119.292C156.599 118.861 156.434 118.564 156.105 118.399C155.788 118.234 155.332 118.152 154.737 118.152H153.141C152.963 118.152 152.767 118.139 152.552 118.114C152.349 118.089 152.146 118.051 151.944 118C151.614 118.241 151.374 118.494 151.222 118.76C151.07 119.026 150.994 119.292 150.994 119.558C150.994 120.052 151.228 120.445 151.697 120.736C152.178 121.027 152.837 121.173 153.673 121.173ZM159.903 118V108.766H161.195L161.328 110.096H161.385C161.828 109.653 162.297 109.285 162.791 108.994C163.285 108.69 163.848 108.538 164.482 108.538C165.457 108.538 166.166 108.848 166.61 109.469C167.066 110.077 167.294 110.97 167.294 112.148V118H165.736V112.357C165.736 111.496 165.596 110.869 165.318 110.476C165.039 110.083 164.596 109.887 163.988 109.887C163.519 109.887 163.095 110.007 162.715 110.248C162.347 110.489 161.929 110.843 161.461 111.312V118H159.903ZM170.293 118V108.766H171.851V118H170.293ZM171.072 106.866C170.768 106.866 170.515 106.777 170.312 106.6C170.122 106.41 170.027 106.157 170.027 105.84C170.027 105.536 170.122 105.289 170.312 105.099C170.515 104.909 170.768 104.814 171.072 104.814C171.376 104.814 171.623 104.909 171.813 105.099C172.016 105.289 172.117 105.536 172.117 105.84C172.117 106.157 172.016 106.41 171.813 106.6C171.623 106.777 171.376 106.866 171.072 106.866ZM174.969 118V108.766H176.261L176.394 110.096H176.451C176.894 109.653 177.363 109.285 177.857 108.994C178.351 108.69 178.915 108.538 179.548 108.538C180.523 108.538 181.233 108.848 181.676 109.469C182.132 110.077 182.36 110.97 182.36 112.148V118H180.802V112.357C180.802 111.496 180.663 110.869 180.384 110.476C180.105 110.083 179.662 109.887 179.054 109.887C178.585 109.887 178.161 110.007 177.781 110.248C177.414 110.489 176.996 110.843 176.527 111.312V118H174.969ZM188.476 122.256C187.728 122.256 187.063 122.155 186.481 121.952C185.911 121.762 185.461 121.483 185.132 121.116C184.815 120.749 184.657 120.299 184.657 119.767C184.657 119.374 184.777 118.994 185.018 118.627C185.258 118.272 185.588 117.956 186.006 117.677V117.601C185.778 117.462 185.581 117.265 185.417 117.012C185.265 116.759 185.189 116.455 185.189 116.1C185.189 115.707 185.296 115.365 185.512 115.074C185.727 114.783 185.955 114.555 186.196 114.39V114.314C185.892 114.061 185.613 113.719 185.36 113.288C185.119 112.857 184.999 112.37 184.999 111.825C184.999 111.154 185.157 110.571 185.474 110.077C185.79 109.583 186.215 109.203 186.747 108.937C187.279 108.671 187.855 108.538 188.476 108.538C188.729 108.538 188.97 108.563 189.198 108.614C189.426 108.652 189.622 108.703 189.787 108.766H192.998V109.963H191.079V110.039C191.294 110.242 191.478 110.495 191.63 110.799C191.782 111.103 191.858 111.464 191.858 111.882C191.858 112.528 191.706 113.092 191.402 113.573C191.098 114.054 190.692 114.428 190.186 114.694C189.679 114.947 189.109 115.074 188.476 115.074C188.248 115.074 188.013 115.049 187.773 114.998C187.532 114.935 187.304 114.852 187.089 114.751C186.924 114.89 186.785 115.049 186.671 115.226C186.557 115.391 186.5 115.6 186.5 115.853C186.5 116.144 186.614 116.385 186.842 116.575C187.082 116.765 187.513 116.86 188.134 116.86H189.92C190.996 116.86 191.801 117.037 192.333 117.392C192.877 117.734 193.15 118.291 193.15 119.064C193.15 119.634 192.96 120.16 192.58 120.641C192.2 121.122 191.661 121.509 190.965 121.8C190.268 122.104 189.438 122.256 188.476 122.256ZM188.476 114.029C188.83 114.029 189.153 113.94 189.445 113.763C189.749 113.586 189.989 113.332 190.167 113.003C190.344 112.661 190.433 112.268 190.433 111.825C190.433 111.154 190.243 110.628 189.863 110.248C189.483 109.868 189.02 109.678 188.476 109.678C187.931 109.678 187.469 109.868 187.089 110.248C186.709 110.628 186.519 111.154 186.519 111.825C186.519 112.268 186.607 112.661 186.785 113.003C186.962 113.332 187.196 113.586 187.488 113.763C187.792 113.94 188.121 114.029 188.476 114.029ZM188.704 121.173C189.299 121.173 189.812 121.084 190.243 120.907C190.686 120.73 191.028 120.495 191.269 120.204C191.509 119.913 191.63 119.609 191.63 119.292C191.63 118.861 191.465 118.564 191.136 118.399C190.819 118.234 190.363 118.152 189.768 118.152H188.172C187.994 118.152 187.798 118.139 187.583 118.114C187.38 118.089 187.177 118.051 186.975 118C186.645 118.241 186.405 118.494 186.253 118.76C186.101 119.026 186.025 119.292 186.025 119.558C186.025 120.052 186.259 120.445 186.728 120.736C187.209 121.027 187.868 121.173 188.704 121.173ZM200.866 118.228C200.359 118.228 199.897 118.127 199.479 117.924C199.073 117.709 198.75 117.405 198.51 117.012C198.282 116.619 198.168 116.151 198.168 115.606C198.168 114.593 198.617 113.82 199.517 113.288C200.429 112.743 201.866 112.363 203.83 112.148C203.83 111.755 203.773 111.382 203.659 111.027C203.557 110.672 203.367 110.387 203.089 110.172C202.823 109.944 202.436 109.83 201.93 109.83C201.398 109.83 200.897 109.931 200.429 110.134C199.96 110.337 199.542 110.552 199.175 110.78L198.567 109.735C198.858 109.545 199.187 109.361 199.555 109.184C199.935 108.994 200.346 108.842 200.79 108.728C201.233 108.601 201.702 108.538 202.196 108.538C202.956 108.538 203.57 108.696 204.039 109.013C204.507 109.33 204.849 109.773 205.065 110.343C205.293 110.9 205.407 111.565 205.407 112.338V118H204.115L203.982 116.898H203.925C203.494 117.253 203.019 117.563 202.5 117.829C201.993 118.095 201.448 118.228 200.866 118.228ZM201.322 116.974C201.765 116.974 202.183 116.866 202.576 116.651C202.968 116.436 203.386 116.132 203.83 115.739V113.174C202.804 113.301 201.987 113.472 201.379 113.687C200.783 113.89 200.353 114.143 200.087 114.447C199.821 114.751 199.688 115.099 199.688 115.492C199.688 116.011 199.846 116.391 200.163 116.632C200.479 116.86 200.866 116.974 201.322 116.974ZM208.312 118V108.766H209.604L209.737 110.096H209.794C210.237 109.653 210.706 109.285 211.2 108.994C211.694 108.69 212.258 108.538 212.891 108.538C213.866 108.538 214.576 108.848 215.019 109.469C215.475 110.077 215.703 110.97 215.703 112.148V118H214.145V112.357C214.145 111.496 214.006 110.869 213.727 110.476C213.448 110.083 213.005 109.887 212.397 109.887C211.928 109.887 211.504 110.007 211.124 110.248C210.757 110.489 210.339 110.843 209.87 111.312V118H208.312ZM89.7123 138L93.9303 125.536H95.7163L99.9343 138H98.2433L96.0773 131.027C95.8493 130.33 95.6339 129.64 95.4313 128.956C95.2286 128.259 95.0259 127.55 94.8233 126.828H94.7473C94.5573 127.55 94.3609 128.259 94.1583 128.956C93.9556 129.64 93.7403 130.33 93.5123 131.027L91.3273 138H89.7123ZM91.9163 134.2V132.927H97.6733V134.2H91.9163ZM101.548 141.895V128.766H102.84L102.973 129.83H103.03C103.448 129.475 103.904 129.171 104.398 128.918C104.905 128.665 105.431 128.538 105.975 128.538C106.773 128.538 107.438 128.734 107.97 129.127C108.515 129.507 108.927 130.052 109.205 130.761C109.484 131.458 109.623 132.287 109.623 133.25C109.623 134.289 109.433 135.182 109.053 135.929C108.686 136.676 108.198 137.246 107.59 137.639C106.995 138.032 106.343 138.228 105.633 138.228C105.203 138.228 104.772 138.133 104.341 137.943C103.923 137.753 103.499 137.493 103.068 137.164L103.106 138.779V141.895H101.548ZM105.367 136.917C105.874 136.917 106.324 136.771 106.716 136.48C107.122 136.189 107.438 135.771 107.666 135.226C107.894 134.669 108.008 134.01 108.008 133.25C108.008 132.566 107.926 131.971 107.761 131.464C107.597 130.957 107.337 130.565 106.982 130.286C106.628 129.995 106.159 129.849 105.576 129.849C105.184 129.849 104.785 129.957 104.379 130.172C103.987 130.387 103.562 130.698 103.106 131.103V135.948C103.524 136.303 103.93 136.556 104.322 136.708C104.715 136.847 105.063 136.917 105.367 136.917ZM112.087 141.895V128.766H113.379L113.512 129.83H113.569C113.987 129.475 114.443 129.171 114.937 128.918C115.444 128.665 115.97 128.538 116.514 128.538C117.312 128.538 117.977 128.734 118.509 129.127C119.054 129.507 119.466 130.052 119.744 130.761C120.023 131.458 120.162 132.287 120.162 133.25C120.162 134.289 119.972 135.182 119.592 135.929C119.225 136.676 118.737 137.246 118.129 137.639C117.534 138.032 116.882 138.228 116.172 138.228C115.742 138.228 115.311 138.133 114.88 137.943C114.462 137.753 114.038 137.493 113.607 137.164L113.645 138.779V141.895H112.087ZM115.906 136.917C116.413 136.917 116.863 136.771 117.255 136.48C117.661 136.189 117.977 135.771 118.205 135.226C118.433 134.669 118.547 134.01 118.547 133.25C118.547 132.566 118.465 131.971 118.3 131.464C118.136 130.957 117.876 130.565 117.521 130.286C117.167 129.995 116.698 129.849 116.115 129.849C115.723 129.849 115.324 129.957 114.918 130.172C114.526 130.387 114.101 130.698 113.645 131.103V135.948C114.063 136.303 114.469 136.556 114.861 136.708C115.254 136.847 115.602 136.917 115.906 136.917ZM127.893 138L125.328 128.766H126.924L128.292 134.105C128.393 134.536 128.488 134.966 128.577 135.397C128.666 135.815 128.754 136.239 128.843 136.67H128.919C129.02 136.239 129.122 135.815 129.223 135.397C129.324 134.966 129.432 134.536 129.546 134.105L130.971 128.766H132.491L133.935 134.105C134.049 134.536 134.157 134.966 134.258 135.397C134.372 135.815 134.48 136.239 134.581 136.67H134.657C134.758 136.239 134.853 135.815 134.942 135.397C135.043 134.966 135.138 134.536 135.227 134.105L136.576 128.766H138.058L135.588 138H133.688L132.358 133.041C132.244 132.598 132.136 132.161 132.035 131.73C131.946 131.287 131.845 130.831 131.731 130.362H131.655C131.566 130.831 131.465 131.287 131.351 131.73C131.25 132.173 131.136 132.617 131.009 133.06L129.717 138H127.893ZM140.068 138V128.766H141.626V138H140.068ZM140.847 126.866C140.543 126.866 140.289 126.777 140.087 126.6C139.897 126.41 139.802 126.157 139.802 125.84C139.802 125.536 139.897 125.289 140.087 125.099C140.289 124.909 140.543 124.814 140.847 124.814C141.151 124.814 141.398 124.909 141.588 125.099C141.79 125.289 141.892 125.536 141.892 125.84C141.892 126.157 141.79 126.41 141.588 126.6C141.398 126.777 141.151 126.866 140.847 126.866ZM147.651 138.171C146.663 138.171 145.972 137.892 145.58 137.335C145.2 136.765 145.01 136.018 145.01 135.093V130.039H143.642V128.861L145.086 128.766L145.276 125.802H146.587V128.766H149.076V130.039H146.587V135.131C146.587 135.688 146.688 136.125 146.891 136.442C147.106 136.746 147.48 136.898 148.012 136.898C148.176 136.898 148.347 136.885 148.525 136.86C148.702 136.822 148.879 136.759 149.057 136.67L149.38 137.772C149.139 137.899 148.867 137.994 148.563 138.057C148.271 138.133 147.967 138.171 147.651 138.171ZM151.163 138V124.472H152.721V128.158L152.664 130.058C153.108 129.64 153.57 129.285 154.051 128.994C154.545 128.69 155.109 128.538 155.742 128.538C156.718 128.538 157.427 128.848 157.87 129.469C158.326 130.077 158.554 130.97 158.554 132.148V138H156.996V132.357C156.996 131.496 156.857 130.869 156.578 130.476C156.3 130.083 155.856 129.887 155.248 129.887C154.78 129.887 154.355 130.007 153.975 130.248C153.608 130.489 153.19 130.843 152.721 131.312V138H151.163ZM167.43 138.228C166.923 138.228 166.461 138.127 166.043 137.924C165.638 137.709 165.315 137.405 165.074 137.012C164.846 136.619 164.732 136.151 164.732 135.606C164.732 134.593 165.182 133.82 166.081 133.288C166.993 132.743 168.431 132.363 170.394 132.148C170.394 131.755 170.337 131.382 170.223 131.027C170.122 130.672 169.932 130.387 169.653 130.172C169.387 129.944 169.001 129.83 168.494 129.83C167.962 129.83 167.462 129.931 166.993 130.134C166.524 130.337 166.106 130.552 165.739 130.78L165.131 129.735C165.422 129.545 165.752 129.361 166.119 129.184C166.499 128.994 166.911 128.842 167.354 128.728C167.797 128.601 168.266 128.538 168.76 128.538C169.52 128.538 170.134 128.696 170.603 129.013C171.072 129.33 171.414 129.773 171.629 130.343C171.857 130.9 171.971 131.565 171.971 132.338V138H170.679L170.546 136.898H170.489C170.058 137.253 169.583 137.563 169.064 137.829C168.557 138.095 168.013 138.228 167.43 138.228ZM167.886 136.974C168.329 136.974 168.747 136.866 169.14 136.651C169.533 136.436 169.951 136.132 170.394 135.739V133.174C169.368 133.301 168.551 133.472 167.943 133.687C167.348 133.89 166.917 134.143 166.651 134.447C166.385 134.751 166.252 135.099 166.252 135.492C166.252 136.011 166.41 136.391 166.727 136.632C167.044 136.86 167.43 136.974 167.886 136.974ZM178.832 138V125.536H180.409V136.651H185.862V138H178.832ZM187.92 138V128.766H189.478V138H187.92ZM188.699 126.866C188.395 126.866 188.142 126.777 187.939 126.6C187.749 126.41 187.654 126.157 187.654 125.84C187.654 125.536 187.749 125.289 187.939 125.099C188.142 124.909 188.395 124.814 188.699 124.814C189.003 124.814 189.25 124.909 189.44 125.099C189.643 125.289 189.744 125.536 189.744 125.84C189.744 126.157 189.643 126.41 189.44 126.6C189.25 126.777 189.003 126.866 188.699 126.866ZM194.591 138L191.266 128.766H192.881L194.629 134.01C194.768 134.466 194.908 134.922 195.047 135.378C195.199 135.834 195.345 136.284 195.484 136.727H195.56C195.699 136.284 195.839 135.834 195.978 135.378C196.13 134.922 196.269 134.466 196.396 134.01L198.144 128.766H199.683L196.415 138H194.591ZM205.134 138.228C204.311 138.228 203.563 138.038 202.892 137.658C202.221 137.265 201.689 136.708 201.296 135.986C200.903 135.264 200.707 134.403 200.707 133.402C200.707 132.389 200.903 131.521 201.296 130.799C201.701 130.077 202.221 129.52 202.854 129.127C203.487 128.734 204.152 128.538 204.849 128.538C205.634 128.538 206.299 128.715 206.844 129.07C207.401 129.425 207.819 129.925 208.098 130.571C208.389 131.217 208.535 131.983 208.535 132.87C208.535 133.035 208.529 133.199 208.516 133.364C208.516 133.516 208.503 133.649 208.478 133.763H201.847L201.828 132.642H207.167C207.167 131.705 206.964 130.995 206.559 130.514C206.166 130.02 205.609 129.773 204.887 129.773C204.456 129.773 204.032 129.9 203.614 130.153C203.196 130.406 202.854 130.799 202.588 131.331C202.322 131.85 202.189 132.528 202.189 133.364C202.202 134.162 202.347 134.833 202.626 135.378C202.917 135.91 203.297 136.309 203.766 136.575C204.235 136.841 204.754 136.974 205.324 136.974C205.767 136.974 206.179 136.917 206.559 136.803C206.952 136.676 207.306 136.505 207.623 136.29L208.174 137.278C207.781 137.557 207.332 137.785 206.825 137.962C206.331 138.139 205.767 138.228 205.134 138.228ZM210.223 133.839V132.642H214.593V133.839H210.223ZM90.8441 158L95.0621 145.536H96.8481L101.066 158H99.3751L97.2091 151.027C96.9811 150.33 96.7658 149.64 96.5631 148.956C96.3604 148.259 96.1578 147.55 95.9551 146.828H95.8791C95.6891 147.55 95.4928 148.259 95.2901 148.956C95.0874 149.64 94.8721 150.33 94.6441 151.027L92.4591 158H90.8441ZM93.0481 154.2V152.927H98.8051V154.2H93.0481ZM106.347 158.228C105.524 158.228 104.783 158.038 104.124 157.658C103.465 157.278 102.946 156.727 102.566 156.005C102.186 155.283 101.996 154.415 101.996 153.402C101.996 152.363 102.199 151.483 102.604 150.761C103.022 150.039 103.567 149.488 104.238 149.108C104.922 148.728 105.657 148.538 106.442 148.538C107.05 148.538 107.569 148.639 108 148.842C108.443 149.045 108.823 149.304 109.14 149.621L108.361 150.571C108.12 150.356 107.848 150.178 107.544 150.039C107.253 149.9 106.904 149.83 106.499 149.83C105.954 149.83 105.46 149.982 105.017 150.286C104.586 150.577 104.244 150.995 103.991 151.54C103.738 152.072 103.611 152.693 103.611 153.402C103.611 154.099 103.731 154.713 103.972 155.245C104.213 155.777 104.548 156.195 104.979 156.499C105.41 156.79 105.91 156.936 106.48 156.936C106.898 156.936 107.291 156.854 107.658 156.689C108.025 156.524 108.348 156.315 108.627 156.062L109.311 157.012C108.931 157.379 108.488 157.677 107.981 157.905C107.487 158.12 106.942 158.228 106.347 158.228ZM114.067 158.171C113.079 158.171 112.388 157.892 111.996 157.335C111.616 156.765 111.426 156.018 111.426 155.093V150.039H110.058V148.861L111.502 148.766L111.692 145.802H113.003V148.766H115.492V150.039H113.003V155.131C113.003 155.688 113.104 156.125 113.307 156.442C113.522 156.746 113.896 156.898 114.428 156.898C114.592 156.898 114.763 156.885 114.941 156.86C115.118 156.822 115.295 156.759 115.473 156.67L115.796 157.772C115.555 157.899 115.283 157.994 114.979 158.057C114.687 158.133 114.383 158.171 114.067 158.171ZM117.579 158V148.766H119.137V158H117.579ZM118.358 146.866C118.054 146.866 117.801 146.777 117.598 146.6C117.408 146.41 117.313 146.157 117.313 145.84C117.313 145.536 117.408 145.289 117.598 145.099C117.801 144.909 118.054 144.814 118.358 144.814C118.662 144.814 118.909 144.909 119.099 145.099C119.302 145.289 119.403 145.536 119.403 145.84C119.403 146.157 119.302 146.41 119.099 146.6C118.909 146.777 118.662 146.866 118.358 146.866ZM125.846 158.228C125.099 158.228 124.396 158.038 123.737 157.658C123.091 157.278 122.566 156.727 122.16 156.005C121.768 155.283 121.571 154.415 121.571 153.402C121.571 152.363 121.768 151.483 122.16 150.761C122.566 150.039 123.091 149.488 123.737 149.108C124.396 148.728 125.099 148.538 125.846 148.538C126.606 148.538 127.309 148.728 127.955 149.108C128.601 149.488 129.121 150.039 129.513 150.761C129.919 151.483 130.121 152.363 130.121 153.402C130.121 154.415 129.919 155.283 129.513 156.005C129.121 156.727 128.601 157.278 127.955 157.658C127.309 158.038 126.606 158.228 125.846 158.228ZM125.846 156.936C126.378 156.936 126.841 156.79 127.233 156.499C127.639 156.195 127.949 155.777 128.164 155.245C128.392 154.713 128.506 154.099 128.506 153.402C128.506 152.693 128.392 152.072 128.164 151.54C127.949 150.995 127.639 150.577 127.233 150.286C126.841 149.982 126.378 149.83 125.846 149.83C125.327 149.83 124.865 149.982 124.459 150.286C124.054 150.577 123.737 150.995 123.509 151.54C123.294 152.072 123.186 152.693 123.186 153.402C123.186 154.099 123.294 154.713 123.509 155.245C123.737 155.777 124.054 156.195 124.459 156.499C124.865 156.79 125.327 156.936 125.846 156.936ZM132.553 158V148.766H133.845L133.978 150.096H134.035C134.478 149.653 134.947 149.285 135.441 148.994C135.935 148.69 136.499 148.538 137.132 148.538C138.107 148.538 138.817 148.848 139.26 149.469C139.716 150.077 139.944 150.97 139.944 152.148V158H138.386V152.357C138.386 151.496 138.247 150.869 137.968 150.476C137.689 150.083 137.246 149.887 136.638 149.887C136.169 149.887 135.745 150.007 135.365 150.248C134.998 150.489 134.58 150.843 134.111 151.312V158H132.553ZM146.899 158V145.536H150.794C151.643 145.536 152.397 145.65 153.055 145.878C153.714 146.093 154.227 146.461 154.594 146.98C154.974 147.487 155.164 148.171 155.164 149.032C155.164 149.855 154.974 150.546 154.594 151.103C154.227 151.648 153.714 152.059 153.055 152.338C152.397 152.604 151.643 152.737 150.794 152.737H148.476V158H146.899ZM148.476 151.445H150.566C151.542 151.445 152.289 151.249 152.808 150.856C153.328 150.451 153.587 149.843 153.587 149.032C153.587 148.209 153.328 147.632 152.808 147.303C152.289 146.974 151.542 146.809 150.566 146.809H148.476V151.445ZM153.739 158L150.49 152.3L151.725 151.464L155.525 158H153.739ZM160.97 158.228C160.223 158.228 159.52 158.038 158.861 157.658C158.215 157.278 157.69 156.727 157.284 156.005C156.892 155.283 156.695 154.415 156.695 153.402C156.695 152.363 156.892 151.483 157.284 150.761C157.69 150.039 158.215 149.488 158.861 149.108C159.52 148.728 160.223 148.538 160.97 148.538C161.73 148.538 162.433 148.728 163.079 149.108C163.725 149.488 164.245 150.039 164.637 150.761C165.043 151.483 165.245 152.363 165.245 153.402C165.245 154.415 165.043 155.283 164.637 156.005C164.245 156.727 163.725 157.278 163.079 157.658C162.433 158.038 161.73 158.228 160.97 158.228ZM160.97 156.936C161.502 156.936 161.965 156.79 162.357 156.499C162.763 156.195 163.073 155.777 163.288 155.245C163.516 154.713 163.63 154.099 163.63 153.402C163.63 152.693 163.516 152.072 163.288 151.54C163.073 150.995 162.763 150.577 162.357 150.286C161.965 149.982 161.502 149.83 160.97 149.83C160.451 149.83 159.989 149.982 159.583 150.286C159.178 150.577 158.861 150.995 158.633 151.54C158.418 152.072 158.31 152.693 158.31 153.402C158.31 154.099 158.418 154.713 158.633 155.245C158.861 155.777 159.178 156.195 159.583 156.499C159.989 156.79 160.451 156.936 160.97 156.936ZM169.33 158.171C168.937 158.171 168.621 158.095 168.38 157.943C168.139 157.778 167.962 157.544 167.848 157.24C167.734 156.923 167.677 156.543 167.677 156.1V144.472H169.235V156.214C169.235 156.455 169.279 156.626 169.368 156.727C169.457 156.828 169.564 156.879 169.691 156.879C169.742 156.879 169.786 156.879 169.824 156.879C169.875 156.866 169.938 156.854 170.014 156.841L170.223 158.019C170.122 158.07 169.995 158.108 169.843 158.133C169.691 158.158 169.52 158.171 169.33 158.171ZM176.263 158.228C175.44 158.228 174.692 158.038 174.021 157.658C173.35 157.265 172.818 156.708 172.425 155.986C172.032 155.264 171.836 154.403 171.836 153.402C171.836 152.389 172.032 151.521 172.425 150.799C172.83 150.077 173.35 149.52 173.983 149.127C174.616 148.734 175.281 148.538 175.978 148.538C176.763 148.538 177.428 148.715 177.973 149.07C178.53 149.425 178.948 149.925 179.227 150.571C179.518 151.217 179.664 151.983 179.664 152.87C179.664 153.035 179.658 153.199 179.645 153.364C179.645 153.516 179.632 153.649 179.607 153.763H172.976L172.957 152.642H178.296C178.296 151.705 178.093 150.995 177.688 150.514C177.295 150.02 176.738 149.773 176.016 149.773C175.585 149.773 175.161 149.9 174.743 150.153C174.325 150.406 173.983 150.799 173.717 151.331C173.451 151.85 173.318 152.528 173.318 153.364C173.331 154.162 173.476 154.833 173.755 155.378C174.046 155.91 174.426 156.309 174.895 156.575C175.364 156.841 175.883 156.974 176.453 156.974C176.896 156.974 177.308 156.917 177.688 156.803C178.081 156.676 178.435 156.505 178.752 156.29L179.303 157.278C178.91 157.557 178.461 157.785 177.954 157.962C177.46 158.139 176.896 158.228 176.263 158.228ZM181.946 161.895V148.766H183.238L183.371 149.83H183.428C183.846 149.475 184.302 149.171 184.796 148.918C185.302 148.665 185.828 148.538 186.373 148.538C187.171 148.538 187.836 148.734 188.368 149.127C188.912 149.507 189.324 150.052 189.603 150.761C189.881 151.458 190.021 152.287 190.021 153.25C190.021 154.289 189.831 155.182 189.451 155.929C189.083 156.676 188.596 157.246 187.988 157.639C187.392 158.032 186.74 158.228 186.031 158.228C185.6 158.228 185.169 158.133 184.739 157.943C184.321 157.753 183.896 157.493 183.466 157.164L183.504 158.779V161.895H181.946ZM185.765 156.917C186.271 156.917 186.721 156.771 187.114 156.48C187.519 156.189 187.836 155.771 188.064 155.226C188.292 154.669 188.406 154.01 188.406 153.25C188.406 152.566 188.323 151.971 188.159 151.464C187.994 150.957 187.734 150.565 187.38 150.286C187.025 149.995 186.556 149.849 185.974 149.849C185.581 149.849 185.182 149.957 184.777 150.172C184.384 150.387 183.96 150.698 183.504 151.103V155.948C183.922 156.303 184.327 156.556 184.72 156.708C185.112 156.847 185.461 156.917 185.765 156.917ZM194.138 158.171C193.745 158.171 193.428 158.095 193.188 157.943C192.947 157.778 192.77 157.544 192.656 157.24C192.542 156.923 192.485 156.543 192.485 156.1V144.472H194.043V156.214C194.043 156.455 194.087 156.626 194.176 156.727C194.264 156.828 194.372 156.879 194.499 156.879C194.549 156.879 194.594 156.879 194.632 156.879C194.682 156.866 194.746 156.854 194.822 156.841L195.031 158.019C194.929 158.07 194.803 158.108 194.651 158.133C194.499 158.158 194.328 158.171 194.138 158.171ZM199.456 158.228C198.949 158.228 198.487 158.127 198.069 157.924C197.663 157.709 197.34 157.405 197.1 157.012C196.872 156.619 196.758 156.151 196.758 155.606C196.758 154.593 197.207 153.82 198.107 153.288C199.019 152.743 200.456 152.363 202.42 152.148C202.42 151.755 202.363 151.382 202.249 151.027C202.147 150.672 201.957 150.387 201.679 150.172C201.413 149.944 201.026 149.83 200.52 149.83C199.988 149.83 199.487 149.931 199.019 150.134C198.55 150.337 198.132 150.552 197.765 150.78L197.157 149.735C197.448 149.545 197.777 149.361 198.145 149.184C198.525 148.994 198.936 148.842 199.38 148.728C199.823 148.601 200.292 148.538 200.786 148.538C201.546 148.538 202.16 148.696 202.629 149.013C203.097 149.33 203.439 149.773 203.655 150.343C203.883 150.9 203.997 151.565 203.997 152.338V158H202.705L202.572 156.898H202.515C202.084 157.253 201.609 157.563 201.09 157.829C200.583 158.095 200.038 158.228 199.456 158.228ZM199.912 156.974C200.355 156.974 200.773 156.866 201.166 156.651C201.558 156.436 201.976 156.132 202.42 155.739V153.174C201.394 153.301 200.577 153.472 199.969 153.687C199.373 153.89 198.943 154.143 198.677 154.447C198.411 154.751 198.278 155.099 198.278 155.492C198.278 156.011 198.436 156.391 198.753 156.632C199.069 156.86 199.456 156.974 199.912 156.974ZM207.054 161.971C206.851 161.971 206.655 161.952 206.465 161.914C206.287 161.876 206.123 161.832 205.971 161.781L206.313 160.565C206.427 160.603 206.541 160.628 206.655 160.641C206.769 160.666 206.876 160.679 206.978 160.679C207.497 160.679 207.928 160.489 208.27 160.109C208.612 159.742 208.878 159.273 209.068 158.703L209.277 158.019L205.572 148.766H207.187L209.068 153.877C209.207 154.27 209.353 154.694 209.505 155.15C209.669 155.606 209.821 156.049 209.961 156.48H210.037C210.176 156.062 210.309 155.625 210.436 155.169C210.562 154.713 210.689 154.282 210.816 153.877L212.469 148.766H213.989L210.512 158.76C210.296 159.368 210.037 159.913 209.733 160.394C209.441 160.875 209.074 161.255 208.631 161.534C208.2 161.825 207.674 161.971 207.054 161.971ZM112.267 178.228C111.228 178.228 110.297 177.975 109.474 177.468C108.65 176.949 107.998 176.208 107.517 175.245C107.048 174.282 106.814 173.123 106.814 171.768C106.814 170.767 106.953 169.868 107.232 169.07C107.51 168.272 107.897 167.594 108.391 167.037C108.885 166.48 109.467 166.055 110.139 165.764C110.81 165.46 111.545 165.308 112.343 165.308C113.09 165.308 113.755 165.46 114.338 165.764C114.933 166.055 115.408 166.416 115.763 166.847L114.908 167.816C114.578 167.461 114.198 167.189 113.768 166.999C113.35 166.796 112.881 166.695 112.362 166.695C111.589 166.695 110.905 166.904 110.31 167.322C109.727 167.727 109.271 168.304 108.942 169.051C108.612 169.798 108.448 170.691 108.448 171.73C108.448 172.769 108.606 173.674 108.923 174.447C109.252 175.207 109.708 175.796 110.291 176.214C110.886 176.632 111.583 176.841 112.381 176.841C112.963 176.841 113.483 176.733 113.939 176.518C114.407 176.29 114.838 175.961 115.231 175.53L116.048 176.442C115.541 177.012 114.984 177.455 114.376 177.772C113.78 178.076 113.077 178.228 112.267 178.228ZM121.829 178.228C121.082 178.228 120.379 178.038 119.72 177.658C119.074 177.278 118.549 176.727 118.143 176.005C117.751 175.283 117.554 174.415 117.554 173.402C117.554 172.363 117.751 171.483 118.143 170.761C118.549 170.039 119.074 169.488 119.72 169.108C120.379 168.728 121.082 168.538 121.829 168.538C122.589 168.538 123.292 168.728 123.938 169.108C124.584 169.488 125.104 170.039 125.496 170.761C125.902 171.483 126.104 172.363 126.104 173.402C126.104 174.415 125.902 175.283 125.496 176.005C125.104 176.727 124.584 177.278 123.938 177.658C123.292 178.038 122.589 178.228 121.829 178.228ZM121.829 176.936C122.361 176.936 122.824 176.79 123.216 176.499C123.622 176.195 123.932 175.777 124.147 175.245C124.375 174.713 124.489 174.099 124.489 173.402C124.489 172.693 124.375 172.072 124.147 171.54C123.932 170.995 123.622 170.577 123.216 170.286C122.824 169.982 122.361 169.83 121.829 169.83C121.31 169.83 120.848 169.982 120.442 170.286C120.037 170.577 119.72 170.995 119.492 171.54C119.277 172.072 119.169 172.693 119.169 173.402C119.169 174.099 119.277 174.713 119.492 175.245C119.72 175.777 120.037 176.195 120.442 176.499C120.848 176.79 121.31 176.936 121.829 176.936ZM128.536 178V168.766H129.828L129.961 170.096H130.018C130.423 169.653 130.867 169.285 131.348 168.994C131.829 168.69 132.342 168.538 132.887 168.538C133.596 168.538 134.147 168.696 134.54 169.013C134.945 169.317 135.243 169.748 135.433 170.305C135.914 169.786 136.402 169.361 136.896 169.032C137.39 168.703 137.916 168.538 138.473 168.538C139.423 168.538 140.126 168.848 140.582 169.469C141.051 170.077 141.285 170.97 141.285 172.148V178H139.727V172.357C139.727 171.496 139.588 170.869 139.309 170.476C139.03 170.083 138.6 169.887 138.017 169.887C137.662 169.887 137.295 170.007 136.915 170.248C136.535 170.476 136.13 170.831 135.699 171.312V178H134.141V172.357C134.141 171.496 134.002 170.869 133.723 170.476C133.444 170.083 133.007 169.887 132.412 169.887C131.728 169.887 130.955 170.362 130.094 171.312V178H128.536ZM144.289 178V168.766H145.581L145.714 170.096H145.771C146.176 169.653 146.62 169.285 147.101 168.994C147.582 168.69 148.095 168.538 148.64 168.538C149.349 168.538 149.9 168.696 150.293 169.013C150.698 169.317 150.996 169.748 151.186 170.305C151.667 169.786 152.155 169.361 152.649 169.032C153.143 168.703 153.669 168.538 154.226 168.538C155.176 168.538 155.879 168.848 156.335 169.469C156.804 170.077 157.038 170.97 157.038 172.148V178H155.48V172.357C155.48 171.496 155.341 170.869 155.062 170.476C154.783 170.083 154.353 169.887 153.77 169.887C153.415 169.887 153.048 170.007 152.668 170.248C152.288 170.476 151.883 170.831 151.452 171.312V178H149.894V172.357C149.894 171.496 149.755 170.869 149.476 170.476C149.197 170.083 148.76 169.887 148.165 169.887C147.481 169.887 146.708 170.362 145.847 171.312V178H144.289ZM162.74 178.228C161.765 178.228 161.049 177.924 160.593 177.316C160.137 176.695 159.909 175.796 159.909 174.618V168.766H161.486V174.409C161.486 175.27 161.619 175.897 161.885 176.29C162.164 176.683 162.607 176.879 163.215 176.879C163.696 176.879 164.121 176.759 164.488 176.518C164.868 176.265 165.273 175.866 165.704 175.321V168.766H167.262V178H165.97L165.837 176.556H165.78C165.349 177.063 164.893 177.468 164.412 177.772C163.931 178.076 163.373 178.228 162.74 178.228ZM170.377 178V168.766H171.669L171.802 170.096H171.859C172.302 169.653 172.771 169.285 173.265 168.994C173.759 168.69 174.323 168.538 174.956 168.538C175.931 168.538 176.641 168.848 177.084 169.469C177.54 170.077 177.768 170.97 177.768 172.148V178H176.21V172.357C176.21 171.496 176.071 170.869 175.792 170.476C175.513 170.083 175.07 169.887 174.462 169.887C173.993 169.887 173.569 170.007 173.189 170.248C172.822 170.489 172.404 170.843 171.935 171.312V178H170.377ZM180.767 178V168.766H182.325V178H180.767ZM181.546 166.866C181.242 166.866 180.989 166.777 180.786 166.6C180.596 166.41 180.501 166.157 180.501 165.84C180.501 165.536 180.596 165.289 180.786 165.099C180.989 164.909 181.242 164.814 181.546 164.814C181.85 164.814 182.097 164.909 182.287 165.099C182.49 165.289 182.591 165.536 182.591 165.84C182.591 166.157 182.49 166.41 182.287 166.6C182.097 166.777 181.85 166.866 181.546 166.866ZM188.35 178.171C187.362 178.171 186.672 177.892 186.279 177.335C185.899 176.765 185.709 176.018 185.709 175.093V170.039H184.341V168.861L185.785 168.766L185.975 165.802H187.286V168.766H189.775V170.039H187.286V175.131C187.286 175.688 187.388 176.125 187.59 176.442C187.806 176.746 188.179 176.898 188.711 176.898C188.876 176.898 189.047 176.885 189.224 176.86C189.402 176.822 189.579 176.759 189.756 176.67L190.079 177.772C189.839 177.899 189.566 177.994 189.262 178.057C188.971 178.133 188.667 178.171 188.35 178.171ZM192.015 181.971C191.813 181.971 191.616 181.952 191.426 181.914C191.249 181.876 191.084 181.832 190.932 181.781L191.274 180.565C191.388 180.603 191.502 180.628 191.616 180.641C191.73 180.666 191.838 180.679 191.939 180.679C192.459 180.679 192.889 180.489 193.231 180.109C193.573 179.742 193.839 179.273 194.029 178.703L194.238 178.019L190.533 168.766H192.148L194.029 173.877C194.169 174.27 194.314 174.694 194.466 175.15C194.631 175.606 194.783 176.049 194.922 176.48H194.998C195.138 176.062 195.271 175.625 195.397 175.169C195.524 174.713 195.651 174.282 195.777 173.877L197.43 168.766H198.95L195.473 178.76C195.258 179.368 194.998 179.913 194.694 180.394C194.403 180.875 194.036 181.255 193.592 181.534C193.162 181.825 192.636 181.971 192.015 181.971Z" fill="#F2F5D3"/>
</svg>
