<svg width="305" height="284" viewBox="0 0 305 284" fill="none" xmlns="http://www.w3.org/2000/svg">
<path d="M187.637 53.394C189.646 45.5073 191.198 37.7603 191.571 31.6647C192.172 21.8274 183.351 14.6008 175.668 8.52282C161.629 -2.58332 149.134 -0.282371 139.795 1.4848C133.167 2.73893 130 10.4946 124.611 24.3282C120.524 34.8195 124.427 53.3135 128.73 68.9994C123.94 58.0929 116.042 51.4947 98.6 39.7919C85.8476 31.2357 60.2439 33.3499 46.7102 35.6284C39.8519 36.783 36.7324 43.1126 35.1148 47.2269C27.3936 66.8651 33.8296 88.1797 39.7844 101.372C43.6465 109.929 55.8851 117.968 64.6467 122.289C66.3424 123.125 68.9334 122.983 63.128 124.393C43.4064 129.181 27.0582 131.466 23.3206 133.346C9.28256 140.41 2.64529 158.667 0.714844 170.141C-1.32907 182.289 1.42212 192.982 3.79895 198.025C7.47849 205.832 17.4378 211.203 24.4604 214.498C34.3907 219.156 50.5448 214.863 65.1981 208.749C65.9411 208.439 66.6559 208.097 67.3436 207.727C65.1194 210.508 63.1601 213.158 61.9011 215.25C59.9318 218.523 59.6974 224.859 59.5888 232.25C59.3309 249.799 84.6365 269.222 90.8859 274.371C103.036 284.381 116.455 284.807 124.505 283.422C132.942 281.971 143.107 268.898 157.227 247.562C169.133 229.574 168.18 210.219 169.435 202.244C172.344 183.76 196.253 227.235 218.603 237.419C233.33 244.129 256.301 240.347 264.605 238.481C272.133 236.789 277.435 231.32 285.316 221.7C293.088 212.213 295.56 197.767 296.494 173.956C297.036 160.142 281.136 141.54 264.578 125.324C273.03 122.748 280.034 114.939 286.958 108.126C295.254 99.9632 300.113 81.3157 304.193 57.7709C306.004 47.3231 304.354 39.7686 303.26 35.3711C302.161 30.9572 298.953 27.4759 295.568 24.5125C292.065 21.4452 287.281 20.0502 278.929 19.0656C263.244 17.2167 243.588 20.1064 227.35 23.1291C211.349 26.1075 204.815 33.3436 192.821 45.9437C190.887 48.5656 189.166 51.0384 187.637 53.394Z" fill="#1B1B1B"/>
</svg>
