<svg width="305" height="284" viewBox="0 0 305 284" fill="none" xmlns="http://www.w3.org/2000/svg">
<path d="M22.2808 144.045C31.827 148.709 42.2066 153.648 51.7881 156.955C46.7946 159.851 40.0194 163.75 35.2078 169.887C31.1175 175.103 27.5364 179.949 25.1938 186.845C22.3948 195.083 18.9057 218.017 25.755 238.864C32.8009 260.31 36.8001 272.424 43.9181 274.567C47.8731 275.758 51.7952 276.994 58.7118 276.599C86.6108 275.008 101.633 271.285 107.943 265.424C110.011 263.503 116.557 254.223 123.05 237.22C128.572 222.759 132.049 203.236 132.275 207.443C132.948 219.957 133.947 234.008 146.605 247.155C153.448 254.263 161.391 263.571 169.615 271.639C174.092 276.032 179.552 281.31 187.694 282.513C199.077 284.193 212.747 285.832 221.033 279.127C229.672 272.136 239.864 263.29 239.823 253.963C239.783 244.825 239.474 236.344 235.603 226.87C228.117 208.548 221.708 194.873 218.651 188.503C211.13 172.829 197.378 159.617 202.362 161.589C207.575 163.652 215.017 167.125 219.582 168.603C224.464 170.184 250.065 175.335 269.87 166.042C286.334 158.316 301.311 146.595 303.912 134.007C304.491 131.207 306.246 124.944 303.505 116.199C299.164 102.344 297.255 96.5814 287.273 91.244C272.508 83.349 264.432 75.8502 244.828 81.5688C222.177 88.1767 195.062 108.367 194.881 100.854C194.862 100.045 206.032 93.556 216.901 77.8327C223.52 68.2577 232.603 53.4168 230.499 45.3713C228.648 38.2968 222.103 17.3733 209.025 8.69269C201.598 3.76266 192.236 -3.5744 174.637 1.99933C158.433 7.13101 147.867 12.4998 136.524 28.4216C133.304 32.9413 128.222 42.5925 124.336 57.1842C121.742 66.9221 120.703 76.5478 119.128 84.3834C118.679 86.6159 118.469 85.4451 118.418 84.1337C118.313 81.4213 120.281 76.9155 114.426 64.9328C109.857 55.5828 104.326 48.0383 90.7297 38.626C80.4215 31.4899 75.5041 28.6078 65.2523 28.9642C49.2155 29.5217 32.3782 29.0556 24.2245 33.9203C16.0647 38.7887 9.92033 43.2539 4.24123 59.4512C1.63328 66.8892 -2.63674 83.6189 2.20064 103.742C7.30449 124.973 13.3203 139.666 22.2808 144.045Z" fill="#1B1B1B"/>
</svg>
