<svg width="305" height="284" viewBox="0 0 305 284" fill="none" xmlns="http://www.w3.org/2000/svg">
<path d="M22.2808 144.045C31.827 148.709 42.2066 153.648 51.7881 156.955C46.7946 159.851 40.0194 163.75 35.2078 169.887C31.1175 175.103 27.5364 179.949 25.1938 186.845C22.3948 195.083 18.9057 218.017 25.755 238.864C32.8009 260.31 36.8001 272.424 43.9181 274.567C47.8731 275.758 51.7952 276.994 58.7118 276.599C86.6108 275.008 101.633 271.285 107.943 265.424C110.011 263.503 116.557 254.223 123.05 237.22C128.572 222.759 132.049 203.236 132.275 207.443C132.948 219.957 133.947 234.008 146.605 247.155C153.448 254.263 161.391 263.571 169.615 271.639C174.092 276.032 179.552 281.31 187.694 282.513C199.077 284.193 212.747 285.832 221.033 279.127C229.672 272.136 239.864 263.29 239.823 253.963C239.783 244.825 239.474 236.344 235.603 226.87C228.117 208.548 221.708 194.873 218.651 188.503C211.13 172.829 197.378 159.617 202.362 161.589C207.575 163.652 215.017 167.125 219.582 168.603C224.464 170.184 250.065 175.335 269.87 166.042C286.334 158.316 301.311 146.595 303.912 134.007C304.491 131.207 306.246 124.944 303.505 116.199C299.164 102.344 297.255 96.5814 287.273 91.244C272.508 83.349 264.432 75.8502 244.828 81.5688C222.177 88.1767 195.062 108.367 194.881 100.854C194.862 100.045 206.032 93.556 216.901 77.8327C223.52 68.2577 232.603 53.4168 230.499 45.3713C228.648 38.2968 222.103 17.3733 209.025 8.69269C201.598 3.76266 192.236 -3.5744 174.637 1.99933C158.433 7.13101 147.867 12.4998 136.524 28.4216C133.304 32.9413 128.222 42.5925 124.336 57.1842C121.742 66.9221 120.703 76.5478 119.128 84.3834C118.679 86.6159 118.469 85.4451 118.418 84.1337C118.313 81.4213 120.281 76.9155 114.426 64.9328C109.857 55.5828 104.326 48.0383 90.7297 38.626C80.4215 31.4899 75.5041 28.6078 65.2523 28.9642C49.2155 29.5217 32.3782 29.0556 24.2245 33.9203C16.0647 38.7887 9.92033 43.2539 4.24123 59.4512C1.63328 66.8892 -2.63674 83.6189 2.20064 103.742C7.30449 124.973 13.3203 139.666 22.2808 144.045Z" fill="#1B1B1B"/>
<path d="M55.2787 127L59.4967 114.536H61.2827L65.5007 127H63.8097L61.6437 120.027C61.4157 119.33 61.2003 118.64 60.9977 117.956C60.795 117.259 60.5923 116.55 60.3897 115.828H60.3137C60.1237 116.55 59.9273 117.259 59.7247 117.956C59.522 118.64 59.3067 119.33 59.0787 120.027L56.8937 127H55.2787ZM57.4827 123.2V121.927H63.2397V123.2H57.4827ZM67.1146 127V117.766H68.4066L68.5396 119.096H68.5966C69.04 118.653 69.5086 118.285 70.0026 117.994C70.4966 117.69 71.0603 117.538 71.6936 117.538C72.669 117.538 73.3783 117.848 73.8216 118.469C74.2776 119.077 74.5056 119.97 74.5056 121.148V127H72.9476V121.357C72.9476 120.496 72.8083 119.869 72.5296 119.476C72.251 119.083 71.8076 118.887 71.1996 118.887C70.731 118.887 70.3066 119.007 69.9266 119.248C69.5593 119.489 69.1413 119.843 68.6726 120.312V127H67.1146ZM79.808 127L84.026 114.536H85.812L90.03 127H88.339L86.173 120.027C85.945 119.33 85.7296 118.64 85.527 117.956C85.3243 117.259 85.1216 116.55 84.919 115.828H84.843C84.653 116.55 84.4566 117.259 84.254 117.956C84.0513 118.64 83.836 119.33 83.608 120.027L81.423 127H79.808ZM82.012 123.2V121.927H87.769V123.2H82.012ZM91.6439 127V117.766H92.9359L93.0689 119.438H93.1259C93.4299 118.855 93.8099 118.393 94.2659 118.051C94.7219 117.709 95.2159 117.538 95.7479 117.538C95.9506 117.538 96.1279 117.557 96.2799 117.595C96.4319 117.62 96.5839 117.665 96.7359 117.728L96.3939 119.058C96.2546 119.02 96.1216 118.995 95.9949 118.982C95.8809 118.957 95.7289 118.944 95.5389 118.944C95.1463 118.944 94.7346 119.102 94.3039 119.419C93.8859 119.736 93.5186 120.287 93.2019 121.072V127H91.6439ZM101.199 127.228C100.047 127.228 99.122 126.81 98.4253 125.974C97.7286 125.125 97.3803 123.935 97.3803 122.402C97.3803 121.401 97.564 120.54 97.9313 119.818C98.3113 119.083 98.8053 118.52 99.4133 118.127C100.034 117.734 100.693 117.538 101.389 117.538C101.921 117.538 102.384 117.633 102.776 117.823C103.169 118.013 103.568 118.273 103.973 118.602L103.897 117.025V113.472H105.474V127H104.182L104.049 125.917H103.992C103.638 126.272 103.22 126.582 102.738 126.848C102.257 127.101 101.744 127.228 101.199 127.228ZM101.541 125.917C101.972 125.917 102.377 125.816 102.757 125.613C103.137 125.398 103.517 125.075 103.897 124.644V119.818C103.505 119.463 103.125 119.216 102.757 119.077C102.403 118.925 102.035 118.849 101.655 118.849C101.161 118.849 100.712 119.001 100.306 119.305C99.9136 119.596 99.597 120.008 99.3563 120.54C99.1156 121.059 98.9953 121.674 98.9953 122.383C98.9953 123.485 99.217 124.353 99.6603 124.986C100.104 125.607 100.731 125.917 101.541 125.917ZM111.282 127.228C110.307 127.228 109.591 126.924 109.135 126.316C108.679 125.695 108.451 124.796 108.451 123.618V117.766H110.028V123.409C110.028 124.27 110.161 124.897 110.427 125.29C110.706 125.683 111.149 125.879 111.757 125.879C112.239 125.879 112.663 125.759 113.03 125.518C113.41 125.265 113.816 124.866 114.246 124.321V117.766H115.804V127H114.512L114.379 125.556H114.322C113.892 126.063 113.436 126.468 112.954 126.772C112.473 127.076 111.916 127.228 111.282 127.228ZM118.919 127V117.766H120.477V127H118.919ZM119.698 115.866C119.394 115.866 119.141 115.777 118.938 115.6C118.748 115.41 118.653 115.157 118.653 114.84C118.653 114.536 118.748 114.289 118.938 114.099C119.141 113.909 119.394 113.814 119.698 113.814C120.002 113.814 120.249 113.909 120.439 114.099C120.642 114.289 120.743 114.536 120.743 114.84C120.743 115.157 120.642 115.41 120.439 115.6C120.249 115.777 120.002 115.866 119.698 115.866ZM123.595 127V117.766H124.887L125.02 119.096H125.077C125.52 118.653 125.989 118.285 126.483 117.994C126.977 117.69 127.541 117.538 128.174 117.538C129.149 117.538 129.859 117.848 130.302 118.469C130.758 119.077 130.986 119.97 130.986 121.148V127H129.428V121.357C129.428 120.496 129.289 119.869 129.01 119.476C128.731 119.083 128.288 118.887 127.68 118.887C127.211 118.887 126.787 119.007 126.407 119.248C126.04 119.489 125.622 119.843 125.153 120.312V127H123.595ZM137.577 127.228C136.829 127.228 136.126 127.038 135.468 126.658C134.822 126.278 134.296 125.727 133.891 125.005C133.498 124.283 133.302 123.415 133.302 122.402C133.302 121.363 133.498 120.483 133.891 119.761C134.296 119.039 134.822 118.488 135.468 118.108C136.126 117.728 136.829 117.538 137.577 117.538C138.337 117.538 139.04 117.728 139.686 118.108C140.332 118.488 140.851 119.039 141.244 119.761C141.649 120.483 141.852 121.363 141.852 122.402C141.852 123.415 141.649 124.283 141.244 125.005C140.851 125.727 140.332 126.278 139.686 126.658C139.04 127.038 138.337 127.228 137.577 127.228ZM137.577 125.936C138.109 125.936 138.571 125.79 138.964 125.499C139.369 125.195 139.679 124.777 139.895 124.245C140.123 123.713 140.237 123.099 140.237 122.402C140.237 121.693 140.123 121.072 139.895 120.54C139.679 119.995 139.369 119.577 138.964 119.286C138.571 118.982 138.109 118.83 137.577 118.83C137.057 118.83 136.595 118.982 136.19 119.286C135.784 119.577 135.468 119.995 135.24 120.54C135.024 121.072 134.917 121.693 134.917 122.402C134.917 123.099 135.024 123.713 135.24 124.245C135.468 124.777 135.784 125.195 136.19 125.499C136.595 125.79 137.057 125.936 137.577 125.936ZM148.087 130.895V117.766H149.379L149.512 118.83H149.569C149.987 118.475 150.443 118.171 150.937 117.918C151.444 117.665 151.97 117.538 152.514 117.538C153.312 117.538 153.977 117.734 154.509 118.127C155.054 118.507 155.466 119.052 155.744 119.761C156.023 120.458 156.162 121.287 156.162 122.25C156.162 123.289 155.972 124.182 155.592 124.929C155.225 125.676 154.737 126.246 154.129 126.639C153.534 127.032 152.882 127.228 152.172 127.228C151.742 127.228 151.311 127.133 150.88 126.943C150.462 126.753 150.038 126.493 149.607 126.164L149.645 127.779V130.895H148.087ZM151.906 125.917C152.413 125.917 152.863 125.771 153.255 125.48C153.661 125.189 153.977 124.771 154.205 124.226C154.433 123.669 154.547 123.01 154.547 122.25C154.547 121.566 154.465 120.971 154.3 120.464C154.136 119.957 153.876 119.565 153.521 119.286C153.167 118.995 152.698 118.849 152.115 118.849C151.723 118.849 151.324 118.957 150.918 119.172C150.526 119.387 150.101 119.698 149.645 120.103V124.948C150.063 125.303 150.469 125.556 150.861 125.708C151.254 125.847 151.602 125.917 151.906 125.917ZM158.626 127V117.766H159.918L160.051 119.438H160.108C160.412 118.855 160.792 118.393 161.248 118.051C161.704 117.709 162.198 117.538 162.73 117.538C162.933 117.538 163.11 117.557 163.262 117.595C163.414 117.62 163.566 117.665 163.718 117.728L163.376 119.058C163.237 119.02 163.104 118.995 162.977 118.982C162.863 118.957 162.711 118.944 162.521 118.944C162.129 118.944 161.717 119.102 161.286 119.419C160.868 119.736 160.501 120.287 160.184 121.072V127H158.626ZM168.619 127.228C167.871 127.228 167.168 127.038 166.51 126.658C165.864 126.278 165.338 125.727 164.933 125.005C164.54 124.283 164.344 123.415 164.344 122.402C164.344 121.363 164.54 120.483 164.933 119.761C165.338 119.039 165.864 118.488 166.51 118.108C167.168 117.728 167.871 117.538 168.619 117.538C169.379 117.538 170.082 117.728 170.728 118.108C171.374 118.488 171.893 119.039 172.286 119.761C172.691 120.483 172.894 121.363 172.894 122.402C172.894 123.415 172.691 124.283 172.286 125.005C171.893 125.727 171.374 126.278 170.728 126.658C170.082 127.038 169.379 127.228 168.619 127.228ZM168.619 125.936C169.151 125.936 169.613 125.79 170.006 125.499C170.411 125.195 170.721 124.777 170.937 124.245C171.165 123.713 171.279 123.099 171.279 122.402C171.279 121.693 171.165 121.072 170.937 120.54C170.721 119.995 170.411 119.577 170.006 119.286C169.613 118.982 169.151 118.83 168.619 118.83C168.099 118.83 167.637 118.982 167.232 119.286C166.826 119.577 166.51 119.995 166.282 120.54C166.066 121.072 165.959 121.693 165.959 122.402C165.959 123.099 166.066 123.713 166.282 124.245C166.51 124.777 166.826 125.195 167.232 125.499C167.637 125.79 168.099 125.936 168.619 125.936ZM174.376 131.123C174.097 131.123 173.844 131.098 173.616 131.047C173.375 130.996 173.172 130.933 173.008 130.857L173.331 129.698C173.445 129.736 173.584 129.768 173.749 129.793C173.901 129.831 174.053 129.85 174.205 129.85C174.661 129.85 174.965 129.685 175.117 129.356C175.269 129.039 175.345 128.602 175.345 128.045V117.766H176.903V128.045C176.903 128.666 176.82 129.204 176.656 129.66C176.491 130.129 176.225 130.49 175.858 130.743C175.49 130.996 174.996 131.123 174.376 131.123ZM176.105 115.866C175.801 115.866 175.547 115.777 175.345 115.6C175.155 115.41 175.06 115.157 175.06 114.84C175.06 114.536 175.155 114.289 175.345 114.099C175.547 113.909 175.801 113.814 176.105 113.814C176.409 113.814 176.656 113.909 176.846 114.099C177.048 114.289 177.15 114.536 177.15 114.84C177.15 115.157 177.048 115.41 176.846 115.6C176.656 115.777 176.409 115.866 176.105 115.866ZM183.763 127.228C182.94 127.228 182.192 127.038 181.521 126.658C180.85 126.265 180.318 125.708 179.925 124.986C179.532 124.264 179.336 123.403 179.336 122.402C179.336 121.389 179.532 120.521 179.925 119.799C180.33 119.077 180.85 118.52 181.483 118.127C182.116 117.734 182.781 117.538 183.478 117.538C184.263 117.538 184.928 117.715 185.473 118.07C186.03 118.425 186.448 118.925 186.727 119.571C187.018 120.217 187.164 120.983 187.164 121.87C187.164 122.035 187.158 122.199 187.145 122.364C187.145 122.516 187.132 122.649 187.107 122.763H180.476L180.457 121.642H185.796C185.796 120.705 185.593 119.995 185.188 119.514C184.795 119.02 184.238 118.773 183.516 118.773C183.085 118.773 182.661 118.9 182.243 119.153C181.825 119.406 181.483 119.799 181.217 120.331C180.951 120.85 180.818 121.528 180.818 122.364C180.831 123.162 180.976 123.833 181.255 124.378C181.546 124.91 181.926 125.309 182.395 125.575C182.864 125.841 183.383 125.974 183.953 125.974C184.396 125.974 184.808 125.917 185.188 125.803C185.581 125.676 185.935 125.505 186.252 125.29L186.803 126.278C186.41 126.557 185.961 126.785 185.454 126.962C184.96 127.139 184.396 127.228 183.763 127.228ZM193.113 127.228C192.289 127.228 191.548 127.038 190.89 126.658C190.231 126.278 189.712 125.727 189.332 125.005C188.952 124.283 188.762 123.415 188.762 122.402C188.762 121.363 188.964 120.483 189.37 119.761C189.788 119.039 190.332 118.488 191.004 118.108C191.688 117.728 192.422 117.538 193.208 117.538C193.816 117.538 194.335 117.639 194.766 117.842C195.209 118.045 195.589 118.304 195.906 118.621L195.127 119.571C194.886 119.356 194.614 119.178 194.31 119.039C194.018 118.9 193.67 118.83 193.265 118.83C192.72 118.83 192.226 118.982 191.783 119.286C191.352 119.577 191.01 119.995 190.757 120.54C190.503 121.072 190.377 121.693 190.377 122.402C190.377 123.099 190.497 123.713 190.738 124.245C190.978 124.777 191.314 125.195 191.745 125.499C192.175 125.79 192.676 125.936 193.246 125.936C193.664 125.936 194.056 125.854 194.424 125.689C194.791 125.524 195.114 125.315 195.393 125.062L196.077 126.012C195.697 126.379 195.253 126.677 194.747 126.905C194.253 127.12 193.708 127.228 193.113 127.228ZM200.832 127.171C199.844 127.171 199.154 126.892 198.761 126.335C198.381 125.765 198.191 125.018 198.191 124.093V119.039H196.823V117.861L198.267 117.766L198.457 114.802H199.768V117.766H202.257V119.039H199.768V124.131C199.768 124.688 199.87 125.125 200.072 125.442C200.288 125.746 200.661 125.898 201.193 125.898C201.358 125.898 201.529 125.885 201.706 125.86C201.884 125.822 202.061 125.759 202.238 125.67L202.561 126.772C202.321 126.899 202.048 126.994 201.744 127.057C201.453 127.133 201.149 127.171 200.832 127.171ZM205.422 120.369C205.105 120.369 204.833 120.261 204.605 120.046C204.39 119.818 204.282 119.533 204.282 119.191C204.282 118.824 204.39 118.532 204.605 118.317C204.833 118.089 205.105 117.975 205.422 117.975C205.726 117.975 205.986 118.089 206.201 118.317C206.429 118.532 206.543 118.824 206.543 119.191C206.543 119.533 206.429 119.818 206.201 120.046C205.986 120.261 205.726 120.369 205.422 120.369ZM205.422 127.228C205.105 127.228 204.833 127.12 204.605 126.905C204.39 126.677 204.282 126.392 204.282 126.05C204.282 125.683 204.39 125.391 204.605 125.176C204.833 124.948 205.105 124.834 205.422 124.834C205.726 124.834 205.986 124.948 206.201 125.176C206.429 125.391 206.543 125.683 206.543 126.05C206.543 126.392 206.429 126.677 206.201 126.905C205.986 127.12 205.726 127.228 205.422 127.228ZM58.3467 147V135.866H54.5847V134.536H63.7047V135.866H59.9427V147H58.3467ZM65.7973 147V133.472H67.3553V137.158L67.2983 139.058C67.7416 138.64 68.2039 138.285 68.6853 137.994C69.1793 137.69 69.7429 137.538 70.3763 137.538C71.3516 137.538 72.0609 137.848 72.5043 138.469C72.9603 139.077 73.1883 139.97 73.1883 141.148V147H71.6303V141.357C71.6303 140.496 71.4909 139.869 71.2123 139.476C70.9336 139.083 70.4903 138.887 69.8823 138.887C69.4136 138.887 68.9893 139.007 68.6093 139.248C68.2419 139.489 67.8239 139.843 67.3553 140.312V147H65.7973ZM79.8752 147.228C79.0519 147.228 78.3046 147.038 77.6332 146.658C76.9619 146.265 76.4299 145.708 76.0372 144.986C75.6446 144.264 75.4482 143.403 75.4482 142.402C75.4482 141.389 75.6446 140.521 76.0372 139.799C76.4426 139.077 76.9619 138.52 77.5952 138.127C78.2286 137.734 78.8936 137.538 79.5902 137.538C80.3756 137.538 81.0406 137.715 81.5852 138.07C82.1426 138.425 82.5606 138.925 82.8392 139.571C83.1306 140.217 83.2762 140.983 83.2762 141.87C83.2762 142.035 83.2699 142.199 83.2572 142.364C83.2572 142.516 83.2446 142.649 83.2192 142.763H76.5882L76.5692 141.642H81.9082C81.9082 140.705 81.7056 139.995 81.3002 139.514C80.9076 139.02 80.3502 138.773 79.6282 138.773C79.1976 138.773 78.7732 138.9 78.3552 139.153C77.9372 139.406 77.5952 139.799 77.3292 140.331C77.0632 140.85 76.9302 141.528 76.9302 142.364C76.9429 143.162 77.0886 143.833 77.3672 144.378C77.6586 144.91 78.0386 145.309 78.5072 145.575C78.9759 145.841 79.4952 145.974 80.0652 145.974C80.5086 145.974 80.9202 145.917 81.3002 145.803C81.6929 145.676 82.0476 145.505 82.3642 145.29L82.9152 146.278C82.5226 146.557 82.0729 146.785 81.5662 146.962C81.0722 147.139 80.5086 147.228 79.8752 147.228ZM89.5137 147V134.536H91.1477L95.6507 142.364C95.8914 142.782 96.1257 143.213 96.3537 143.656C96.5817 144.087 96.797 144.517 96.9997 144.948H97.0757C97.0377 144.315 96.9934 143.662 96.9427 142.991C96.9047 142.307 96.8857 141.636 96.8857 140.977V134.536H98.3867V147H96.7527L92.2307 139.153C92.0027 138.735 91.7747 138.311 91.5467 137.88C91.3187 137.437 91.097 137.006 90.8817 136.588H90.8057C90.8564 137.209 90.9007 137.848 90.9387 138.507C90.9894 139.166 91.0147 139.824 91.0147 140.483V147H89.5137ZM105.406 147.228C104.583 147.228 103.836 147.038 103.164 146.658C102.493 146.265 101.961 145.708 101.568 144.986C101.176 144.264 100.979 143.403 100.979 142.402C100.979 141.389 101.176 140.521 101.568 139.799C101.974 139.077 102.493 138.52 103.126 138.127C103.76 137.734 104.425 137.538 105.121 137.538C105.907 137.538 106.572 137.715 107.116 138.07C107.674 138.425 108.092 138.925 108.37 139.571C108.662 140.217 108.807 140.983 108.807 141.87C108.807 142.035 108.801 142.199 108.788 142.364C108.788 142.516 108.776 142.649 108.75 142.763H102.119L102.1 141.642H107.439C107.439 140.705 107.237 139.995 106.831 139.514C106.439 139.02 105.881 138.773 105.159 138.773C104.729 138.773 104.304 138.9 103.886 139.153C103.468 139.406 103.126 139.799 102.86 140.331C102.594 140.85 102.461 141.528 102.461 142.364C102.474 143.162 102.62 143.833 102.898 144.378C103.19 144.91 103.57 145.309 104.038 145.575C104.507 145.841 105.026 145.974 105.596 145.974C106.04 145.974 106.451 145.917 106.831 145.803C107.224 145.676 107.579 145.505 107.895 145.29L108.446 146.278C108.054 146.557 107.604 146.785 107.097 146.962C106.603 147.139 106.04 147.228 105.406 147.228ZM113.177 147L109.852 137.766H111.467L113.215 143.01C113.354 143.466 113.494 143.922 113.633 144.378C113.785 144.834 113.931 145.284 114.07 145.727H114.146C114.285 145.284 114.425 144.834 114.564 144.378C114.716 143.922 114.855 143.466 114.982 143.01L116.73 137.766H118.269L115.001 147H113.177ZM123.72 147.228C122.897 147.228 122.149 147.038 121.478 146.658C120.807 146.265 120.275 145.708 119.882 144.986C119.489 144.264 119.293 143.403 119.293 142.402C119.293 141.389 119.489 140.521 119.882 139.799C120.287 139.077 120.807 138.52 121.44 138.127C122.073 137.734 122.738 137.538 123.435 137.538C124.22 137.538 124.885 137.715 125.43 138.07C125.987 138.425 126.405 138.925 126.684 139.571C126.975 140.217 127.121 140.983 127.121 141.87C127.121 142.035 127.115 142.199 127.102 142.364C127.102 142.516 127.089 142.649 127.064 142.763H120.433L120.414 141.642H125.753C125.753 140.705 125.55 139.995 125.145 139.514C124.752 139.02 124.195 138.773 123.473 138.773C123.042 138.773 122.618 138.9 122.2 139.153C121.782 139.406 121.44 139.799 121.174 140.331C120.908 140.85 120.775 141.528 120.775 142.364C120.788 143.162 120.933 143.833 121.212 144.378C121.503 144.91 121.883 145.309 122.352 145.575C122.821 145.841 123.34 145.974 123.91 145.974C124.353 145.974 124.765 145.917 125.145 145.803C125.538 145.676 125.892 145.505 126.209 145.29L126.76 146.278C126.367 146.557 125.918 146.785 125.411 146.962C124.917 147.139 124.353 147.228 123.72 147.228ZM129.403 147V137.766H130.695L130.828 139.438H130.885C131.189 138.855 131.569 138.393 132.025 138.051C132.481 137.709 132.975 137.538 133.507 137.538C133.709 137.538 133.887 137.557 134.039 137.595C134.191 137.62 134.343 137.665 134.495 137.728L134.153 139.058C134.013 139.02 133.88 138.995 133.754 138.982C133.64 138.957 133.488 138.944 133.298 138.944C132.905 138.944 132.493 139.102 132.063 139.419C131.645 139.736 131.277 140.287 130.961 141.072V147H129.403ZM134.747 142.839V141.642H139.117V142.839H134.747ZM141.578 147V134.536H143.155V145.651H148.608V147H141.578ZM152.794 147.228C152.288 147.228 151.825 147.127 151.407 146.924C151.002 146.709 150.679 146.405 150.438 146.012C150.21 145.619 150.096 145.151 150.096 144.606C150.096 143.593 150.546 142.82 151.445 142.288C152.357 141.743 153.795 141.363 155.758 141.148C155.758 140.755 155.701 140.382 155.587 140.027C155.486 139.672 155.296 139.387 155.017 139.172C154.751 138.944 154.365 138.83 153.858 138.83C153.326 138.83 152.826 138.931 152.357 139.134C151.889 139.337 151.471 139.552 151.103 139.78L150.495 138.735C150.787 138.545 151.116 138.361 151.483 138.184C151.863 137.994 152.275 137.842 152.718 137.728C153.162 137.601 153.63 137.538 154.124 137.538C154.884 137.538 155.499 137.696 155.967 138.013C156.436 138.33 156.778 138.773 156.993 139.343C157.221 139.9 157.335 140.565 157.335 141.338V147H156.043L155.91 145.898H155.853C155.423 146.253 154.948 146.563 154.428 146.829C153.922 147.095 153.377 147.228 152.794 147.228ZM153.25 145.974C153.694 145.974 154.112 145.866 154.504 145.651C154.897 145.436 155.315 145.132 155.758 144.739V142.174C154.732 142.301 153.915 142.472 153.307 142.687C152.712 142.89 152.281 143.143 152.015 143.447C151.749 143.751 151.616 144.099 151.616 144.492C151.616 145.011 151.775 145.391 152.091 145.632C152.408 145.86 152.794 145.974 153.25 145.974ZM162.888 147.171C161.9 147.171 161.21 146.892 160.817 146.335C160.437 145.765 160.247 145.018 160.247 144.093V139.039H158.879V137.861L160.323 137.766L160.513 134.802H161.824V137.766H164.313V139.039H161.824V144.131C161.824 144.688 161.925 145.125 162.128 145.442C162.343 145.746 162.717 145.898 163.249 145.898C163.414 145.898 163.585 145.885 163.762 145.86C163.939 145.822 164.117 145.759 164.294 145.67L164.617 146.772C164.376 146.899 164.104 146.994 163.8 147.057C163.509 147.133 163.205 147.171 162.888 147.171ZM169.884 147.228C169.061 147.228 168.313 147.038 167.642 146.658C166.971 146.265 166.439 145.708 166.046 144.986C165.653 144.264 165.457 143.403 165.457 142.402C165.457 141.389 165.653 140.521 166.046 139.799C166.451 139.077 166.971 138.52 167.604 138.127C168.237 137.734 168.902 137.538 169.599 137.538C170.384 137.538 171.049 137.715 171.594 138.07C172.151 138.425 172.569 138.925 172.848 139.571C173.139 140.217 173.285 140.983 173.285 141.87C173.285 142.035 173.279 142.199 173.266 142.364C173.266 142.516 173.253 142.649 173.228 142.763H166.597L166.578 141.642H171.917C171.917 140.705 171.714 139.995 171.309 139.514C170.916 139.02 170.359 138.773 169.637 138.773C169.206 138.773 168.782 138.9 168.364 139.153C167.946 139.406 167.604 139.799 167.338 140.331C167.072 140.85 166.939 141.528 166.939 142.364C166.952 143.162 167.097 143.833 167.376 144.378C167.667 144.91 168.047 145.309 168.516 145.575C168.985 145.841 169.504 145.974 170.074 145.974C170.517 145.974 170.929 145.917 171.309 145.803C171.702 145.676 172.056 145.505 172.373 145.29L172.924 146.278C172.531 146.557 172.082 146.785 171.575 146.962C171.081 147.139 170.517 147.228 169.884 147.228ZM179.523 147V134.536H183.228C184.076 134.536 184.817 134.637 185.451 134.84C186.097 135.043 186.597 135.366 186.952 135.809C187.319 136.252 187.503 136.841 187.503 137.576C187.503 138.222 187.344 138.792 187.028 139.286C186.724 139.767 186.274 140.103 185.679 140.293V140.369C186.464 140.508 187.085 140.825 187.541 141.319C187.997 141.8 188.225 142.459 188.225 143.295C188.225 144.118 188.022 144.809 187.617 145.366C187.224 145.911 186.673 146.322 185.964 146.601C185.254 146.867 184.431 147 183.494 147H179.523ZM181.1 139.837H182.943C184.007 139.837 184.773 139.653 185.242 139.286C185.71 138.919 185.945 138.418 185.945 137.785C185.945 137.063 185.698 136.55 185.204 136.246C184.722 135.942 183.994 135.79 183.019 135.79H181.1V139.837ZM181.1 145.746H183.266C184.342 145.746 185.178 145.55 185.774 145.157C186.369 144.752 186.667 144.131 186.667 143.295C186.667 142.522 186.369 141.959 185.774 141.604C185.191 141.237 184.355 141.053 183.266 141.053H181.1V145.746ZM194.283 147.228C193.46 147.228 192.713 147.038 192.041 146.658C191.37 146.265 190.838 145.708 190.445 144.986C190.053 144.264 189.856 143.403 189.856 142.402C189.856 141.389 190.053 140.521 190.445 139.799C190.851 139.077 191.37 138.52 192.003 138.127C192.637 137.734 193.302 137.538 193.998 137.538C194.784 137.538 195.449 137.715 195.993 138.07C196.551 138.425 196.969 138.925 197.247 139.571C197.539 140.217 197.684 140.983 197.684 141.87C197.684 142.035 197.678 142.199 197.665 142.364C197.665 142.516 197.653 142.649 197.627 142.763H190.996L190.977 141.642H196.316C196.316 140.705 196.114 139.995 195.708 139.514C195.316 139.02 194.758 138.773 194.036 138.773C193.606 138.773 193.181 138.9 192.763 139.153C192.345 139.406 192.003 139.799 191.737 140.331C191.471 140.85 191.338 141.528 191.338 142.364C191.351 143.162 191.497 143.833 191.775 144.378C192.067 144.91 192.447 145.309 192.915 145.575C193.384 145.841 193.903 145.974 194.473 145.974C194.917 145.974 195.328 145.917 195.708 145.803C196.101 145.676 196.456 145.505 196.772 145.29L197.323 146.278C196.931 146.557 196.481 146.785 195.974 146.962C195.48 147.139 194.917 147.228 194.283 147.228ZM203.12 147.228C201.968 147.228 201.043 146.81 200.346 145.974C199.65 145.125 199.301 143.935 199.301 142.402C199.301 141.401 199.485 140.54 199.852 139.818C200.232 139.083 200.726 138.52 201.334 138.127C201.955 137.734 202.614 137.538 203.31 137.538C203.842 137.538 204.305 137.633 204.697 137.823C205.09 138.013 205.489 138.273 205.894 138.602L205.818 137.025V133.472H207.395V147H206.103L205.97 145.917H205.913C205.559 146.272 205.141 146.582 204.659 146.848C204.178 147.101 203.665 147.228 203.12 147.228ZM203.462 145.917C203.893 145.917 204.298 145.816 204.678 145.613C205.058 145.398 205.438 145.075 205.818 144.644V139.818C205.426 139.463 205.046 139.216 204.678 139.077C204.324 138.925 203.956 138.849 203.576 138.849C203.082 138.849 202.633 139.001 202.227 139.305C201.835 139.596 201.518 140.008 201.277 140.54C201.037 141.059 200.916 141.674 200.916 142.383C200.916 143.485 201.138 144.353 201.581 144.986C202.025 145.607 202.652 145.917 203.462 145.917Z" fill="#F2F5D3"/>
</svg>
