<svg width="305" height="307" viewBox="0 0 305 307" fill="none" xmlns="http://www.w3.org/2000/svg">
<path d="M206.207 214.665C207.472 216.431 219.913 237.437 227.228 252.651C232.826 264.292 227.721 281.686 221.481 291.38C216.19 299.6 210.64 301.162 202.636 304.135C192.317 307.968 173.747 305.529 161.502 299.917C149.533 294.432 141.674 280.925 136.181 270.863C127.879 255.656 129.659 237.407 130.134 229.208C130.33 225.838 131.561 224.162 128.367 227.262C117.358 237.95 105.628 250.178 95.313 257.482C72.4399 273.677 54.6461 274.084 44.6053 274.072C32.3493 274.057 18.0364 254.267 13.033 244.142C7.68112 233.313 9.03582 218.645 9.49464 207.702C9.95587 196.701 17.7327 189.19 26.6565 181.55C33.9871 175.273 44.2762 171.155 54.6597 167.195C67.3113 162.369 77.9671 159.97 79.401 157.695C88.4522 143.339 47.9142 152.341 38.5545 146.869C27.784 140.572 18.7865 123.141 12.9606 108.342C4.85807 87.7609 10.798 72.3915 17.6389 61.2413C24.0337 50.8184 33.9166 47.6543 42.8501 44.6943C50.3652 42.2042 61.0378 42.3317 72.6605 42.8972C84.7827 43.4871 97.108 49.1202 107.395 54.091C118.759 59.5818 125.309 69.5716 134.128 90.8323C136.043 95.4501 136.865 96.5662 138.033 91.7212C141.779 76.1886 144.966 57.5754 149.62 45.4367C152.452 38.0502 157.697 32.448 164.178 26.1139C169.945 20.4768 178.831 15.7171 189.921 10.4275C201.449 4.92894 215.868 3.0637 229.434 1.62446C246.989 -0.237992 254.851 2.39275 261.465 4.59267C267.703 6.66765 272.796 11.2768 276.533 15.7589C280.508 20.5257 280.614 27.3904 280.745 46.0488C280.794 53.0843 274.821 68.5872 266.351 89.4247C259.506 106.264 249.356 112.805 246.05 116.763C244.628 118.465 245.987 120.682 248.286 122.999C260.925 135.736 281.306 144.53 290.932 154.019C299.345 162.312 299.691 172.511 300.404 196.71C300.748 208.361 296.02 217.135 293.324 221.486C290.098 226.692 274.518 228.891 246.657 229.921C231.093 230.496 226 227.772 217.333 222.817C213.353 220.992 210.413 219.992 208.3 219.161C207.289 218.667 206.399 218.025 205.483 216.659" stroke="#1B1B1B" stroke-width="2" stroke-linecap="round" stroke-dasharray="8 8"/>
<path d="M95.8247 139.992V127.528H103.007V128.858H97.4017V132.772H102.133V134.121H97.4017V138.643H103.197V139.992H95.8247ZM105.692 139.992V130.758H106.984L107.117 132.088H107.174C107.58 131.644 108.023 131.277 108.504 130.986C108.986 130.682 109.499 130.53 110.043 130.53C110.753 130.53 111.304 130.688 111.696 131.005C112.102 131.309 112.399 131.739 112.589 132.297C113.071 131.777 113.558 131.353 114.052 131.024C114.546 130.694 115.072 130.53 115.629 130.53C116.579 130.53 117.282 130.84 117.738 131.461C118.207 132.069 118.441 132.962 118.441 134.14V139.992H116.883V134.349C116.883 133.487 116.744 132.86 116.465 132.468C116.187 132.075 115.756 131.879 115.173 131.879C114.819 131.879 114.451 131.999 114.071 132.24C113.691 132.468 113.286 132.822 112.855 133.304V139.992H111.297V134.349C111.297 133.487 111.158 132.86 110.879 132.468C110.601 132.075 110.164 131.879 109.568 131.879C108.884 131.879 108.112 132.354 107.25 133.304V139.992H105.692ZM121.445 143.887V130.758H122.737L122.87 131.822H122.927C123.345 131.467 123.801 131.163 124.295 130.91C124.802 130.656 125.328 130.53 125.872 130.53C126.67 130.53 127.335 130.726 127.867 131.119C128.412 131.499 128.824 132.043 129.102 132.753C129.381 133.449 129.52 134.279 129.52 135.242C129.52 136.28 129.33 137.173 128.95 137.921C128.583 138.668 128.095 139.238 127.487 139.631C126.892 140.023 126.24 140.22 125.53 140.22C125.1 140.22 124.669 140.125 124.238 139.935C123.82 139.745 123.396 139.485 122.965 139.156L123.003 140.771V143.887H121.445ZM125.264 138.909C125.771 138.909 126.221 138.763 126.613 138.472C127.019 138.18 127.335 137.762 127.563 137.218C127.791 136.66 127.905 136.002 127.905 135.242C127.905 134.558 127.823 133.962 127.658 133.456C127.494 132.949 127.234 132.556 126.879 132.278C126.525 131.986 126.056 131.841 125.473 131.841C125.081 131.841 124.682 131.948 124.276 132.164C123.884 132.379 123.459 132.689 123.003 133.095V137.94C123.421 138.294 123.827 138.548 124.219 138.7C124.612 138.839 124.96 138.909 125.264 138.909ZM134.576 140.163C133.588 140.163 132.898 139.884 132.505 139.327C132.125 138.757 131.935 138.009 131.935 137.085V132.031H130.567V130.853L132.011 130.758L132.201 127.794H133.512V130.758H136.001V132.031H133.512V137.123C133.512 137.68 133.613 138.117 133.816 138.434C134.031 138.738 134.405 138.89 134.937 138.89C135.102 138.89 135.273 138.877 135.45 138.852C135.627 138.814 135.805 138.75 135.982 138.662L136.305 139.764C136.064 139.89 135.792 139.985 135.488 140.049C135.197 140.125 134.893 140.163 134.576 140.163ZM138.241 143.963C138.038 143.963 137.842 143.944 137.652 143.906C137.474 143.868 137.31 143.823 137.158 143.773L137.5 142.557C137.614 142.595 137.728 142.62 137.842 142.633C137.956 142.658 138.063 142.671 138.165 142.671C138.684 142.671 139.115 142.481 139.457 142.101C139.799 141.733 140.065 141.265 140.255 140.695L140.464 140.011L136.759 130.758H138.374L140.255 135.869C140.394 136.261 140.54 136.686 140.692 137.142C140.856 137.598 141.008 138.041 141.148 138.472H141.224C141.363 138.054 141.496 137.617 141.623 137.161C141.749 136.705 141.876 136.274 142.003 135.869L143.656 130.758H145.176L141.699 140.752C141.483 141.36 141.224 141.904 140.92 142.386C140.628 142.867 140.261 143.247 139.818 143.526C139.387 143.817 138.861 143.963 138.241 143.963ZM153.175 140.22C152.503 140.22 151.87 140.106 151.275 139.878C150.679 139.637 150.166 139.308 149.736 138.89L150.458 137.978C150.863 138.307 151.281 138.56 151.712 138.738C152.155 138.915 152.662 139.004 153.232 139.004C153.84 139.004 154.296 138.864 154.6 138.586C154.904 138.294 155.056 137.952 155.056 137.56C155.056 137.243 154.954 136.983 154.752 136.781C154.549 136.565 154.289 136.388 153.973 136.249C153.656 136.097 153.32 135.957 152.966 135.831C152.51 135.666 152.073 135.476 151.655 135.261C151.237 135.033 150.895 134.754 150.629 134.425C150.375 134.083 150.249 133.658 150.249 133.152C150.249 132.404 150.527 131.784 151.085 131.29C151.655 130.783 152.44 130.53 153.441 130.53C154.011 130.53 154.543 130.631 155.037 130.834C155.531 131.024 155.955 131.271 156.31 131.575L155.588 132.468C155.271 132.24 154.935 132.062 154.581 131.936C154.239 131.809 153.859 131.746 153.441 131.746C152.858 131.746 152.427 131.879 152.149 132.145C151.883 132.411 151.75 132.721 151.75 133.076C151.75 133.354 151.832 133.589 151.997 133.779C152.161 133.956 152.389 134.114 152.681 134.254C152.985 134.38 153.327 134.513 153.707 134.653C154.188 134.817 154.644 135.014 155.075 135.242C155.518 135.47 155.873 135.761 156.139 136.116C156.417 136.458 156.557 136.907 156.557 137.465C156.557 137.959 156.424 138.415 156.158 138.833C155.904 139.251 155.524 139.586 155.018 139.84C154.524 140.093 153.909 140.22 153.175 140.22ZM160.375 140.163C159.982 140.163 159.665 140.087 159.425 139.935C159.184 139.77 159.007 139.536 158.893 139.232C158.779 138.915 158.722 138.535 158.722 138.092V126.464H160.28V138.206C160.28 138.446 160.324 138.617 160.413 138.719C160.501 138.82 160.609 138.871 160.736 138.871C160.786 138.871 160.831 138.871 160.869 138.871C160.919 138.858 160.983 138.845 161.059 138.833L161.268 140.011C161.166 140.061 161.04 140.099 160.888 140.125C160.736 140.15 160.565 140.163 160.375 140.163ZM167.155 140.22C166.408 140.22 165.705 140.03 165.046 139.65C164.4 139.27 163.875 138.719 163.469 137.997C163.077 137.275 162.88 136.407 162.88 135.394C162.88 134.355 163.077 133.475 163.469 132.753C163.875 132.031 164.4 131.48 165.046 131.1C165.705 130.72 166.408 130.53 167.155 130.53C167.915 130.53 168.618 130.72 169.264 131.1C169.91 131.48 170.43 132.031 170.822 132.753C171.228 133.475 171.43 134.355 171.43 135.394C171.43 136.407 171.228 137.275 170.822 137.997C170.43 138.719 169.91 139.27 169.264 139.65C168.618 140.03 167.915 140.22 167.155 140.22ZM167.155 138.928C167.687 138.928 168.15 138.782 168.542 138.491C168.948 138.187 169.258 137.769 169.473 137.237C169.701 136.705 169.815 136.09 169.815 135.394C169.815 134.684 169.701 134.064 169.473 133.532C169.258 132.987 168.948 132.569 168.542 132.278C168.15 131.974 167.687 131.822 167.155 131.822C166.636 131.822 166.174 131.974 165.768 132.278C165.363 132.569 165.046 132.987 164.818 133.532C164.603 134.064 164.495 134.684 164.495 135.394C164.495 136.09 164.603 136.705 164.818 137.237C165.046 137.769 165.363 138.187 165.768 138.491C166.174 138.782 166.636 138.928 167.155 138.928ZM176.454 140.163C175.466 140.163 174.775 139.884 174.383 139.327C174.003 138.757 173.813 138.009 173.813 137.085V132.031H172.445V130.853L173.889 130.758L174.079 127.794H175.39V130.758H177.879V132.031H175.39V137.123C175.39 137.68 175.491 138.117 175.694 138.434C175.909 138.738 176.283 138.89 176.815 138.89C176.979 138.89 177.15 138.877 177.328 138.852C177.505 138.814 177.682 138.75 177.86 138.662L178.183 139.764C177.942 139.89 177.67 139.985 177.366 140.049C177.074 140.125 176.77 140.163 176.454 140.163ZM184.036 139.992V129.295C184.036 128.661 184.131 128.117 184.321 127.661C184.524 127.205 184.822 126.856 185.214 126.616C185.62 126.362 186.126 126.236 186.734 126.236C187.026 126.236 187.304 126.267 187.57 126.331C187.836 126.381 188.071 126.451 188.273 126.54L187.931 127.68C187.551 127.566 187.203 127.509 186.886 127.509C186.456 127.509 186.133 127.661 185.917 127.965C185.702 128.256 185.594 128.699 185.594 129.295V139.992H184.036ZM182.668 132.031V130.853L184.112 130.758H187.551V132.031H182.668ZM192.724 140.22C191.976 140.22 191.273 140.03 190.615 139.65C189.969 139.27 189.443 138.719 189.038 137.997C188.645 137.275 188.449 136.407 188.449 135.394C188.449 134.355 188.645 133.475 189.038 132.753C189.443 132.031 189.969 131.48 190.615 131.1C191.273 130.72 191.976 130.53 192.724 130.53C193.484 130.53 194.187 130.72 194.833 131.1C195.479 131.48 195.998 132.031 196.391 132.753C196.796 133.475 196.999 134.355 196.999 135.394C196.999 136.407 196.796 137.275 196.391 137.997C195.998 138.719 195.479 139.27 194.833 139.65C194.187 140.03 193.484 140.22 192.724 140.22ZM192.724 138.928C193.256 138.928 193.718 138.782 194.111 138.491C194.516 138.187 194.826 137.769 195.042 137.237C195.27 136.705 195.384 136.09 195.384 135.394C195.384 134.684 195.27 134.064 195.042 133.532C194.826 132.987 194.516 132.569 194.111 132.278C193.718 131.974 193.256 131.822 192.724 131.822C192.204 131.822 191.742 131.974 191.337 132.278C190.931 132.569 190.615 132.987 190.387 133.532C190.171 134.064 190.064 134.684 190.064 135.394C190.064 136.09 190.171 136.705 190.387 137.237C190.615 137.769 190.931 138.187 191.337 138.491C191.742 138.782 192.204 138.928 192.724 138.928ZM199.431 139.992V130.758H200.723L200.856 132.43H200.913C201.217 131.847 201.597 131.385 202.053 131.043C202.509 130.701 203.003 130.53 203.535 130.53C203.737 130.53 203.915 130.549 204.067 130.587C204.219 130.612 204.371 130.656 204.523 130.72L204.181 132.05C204.041 132.012 203.908 131.986 203.782 131.974C203.668 131.948 203.516 131.936 203.326 131.936C202.933 131.936 202.521 132.094 202.091 132.411C201.673 132.727 201.305 133.278 200.989 134.064V139.992H199.431ZM209.821 139.992V130.758H211.113L211.246 132.088H211.303C211.709 131.644 212.152 131.277 212.633 130.986C213.115 130.682 213.628 130.53 214.172 130.53C214.882 130.53 215.433 130.688 215.825 131.005C216.231 131.309 216.528 131.739 216.718 132.297C217.2 131.777 217.687 131.353 218.181 131.024C218.675 130.694 219.201 130.53 219.758 130.53C220.708 130.53 221.411 130.84 221.867 131.461C222.336 132.069 222.57 132.962 222.57 134.14V139.992H221.012V134.349C221.012 133.487 220.873 132.86 220.594 132.468C220.316 132.075 219.885 131.879 219.302 131.879C218.948 131.879 218.58 131.999 218.2 132.24C217.82 132.468 217.415 132.822 216.984 133.304V139.992H215.426V134.349C215.426 133.487 215.287 132.86 215.008 132.468C214.73 132.075 214.293 131.879 213.697 131.879C213.013 131.879 212.241 132.354 211.379 133.304V139.992H209.821ZM225.726 143.963C225.523 143.963 225.327 143.944 225.137 143.906C224.96 143.868 224.795 143.823 224.643 143.773L224.985 142.557C225.099 142.595 225.213 142.62 225.327 142.633C225.441 142.658 225.549 142.671 225.65 142.671C226.169 142.671 226.6 142.481 226.942 142.101C227.284 141.733 227.55 141.265 227.74 140.695L227.949 140.011L224.244 130.758H225.859L227.74 135.869C227.879 136.261 228.025 136.686 228.177 137.142C228.342 137.598 228.494 138.041 228.633 138.472H228.709C228.848 138.054 228.981 137.617 229.108 137.161C229.235 136.705 229.361 136.274 229.488 135.869L231.141 130.758H232.661L229.184 140.752C228.969 141.36 228.709 141.904 228.405 142.386C228.114 142.867 227.746 143.247 227.303 143.526C226.872 143.817 226.347 143.963 225.726 143.963ZM104.471 159.992V147.528H108.176C109.025 147.528 109.766 147.629 110.399 147.832C111.045 148.034 111.546 148.357 111.9 148.801C112.268 149.244 112.451 149.833 112.451 150.568C112.451 151.214 112.293 151.784 111.976 152.278C111.672 152.759 111.223 153.095 110.627 153.285V153.361C111.413 153.5 112.033 153.817 112.489 154.311C112.945 154.792 113.173 155.451 113.173 156.287C113.173 157.11 112.971 157.8 112.565 158.358C112.173 158.902 111.622 159.314 110.912 159.593C110.203 159.859 109.38 159.992 108.442 159.992H104.471ZM106.048 152.829H107.891C108.955 152.829 109.722 152.645 110.19 152.278C110.659 151.91 110.893 151.41 110.893 150.777C110.893 150.055 110.646 149.542 110.152 149.238C109.671 148.934 108.943 148.782 107.967 148.782H106.048V152.829ZM106.048 158.738H108.214C109.291 158.738 110.127 158.541 110.722 158.149C111.318 157.743 111.615 157.123 111.615 156.287C111.615 155.514 111.318 154.95 110.722 154.596C110.14 154.228 109.304 154.045 108.214 154.045H106.048V158.738ZM117.617 160.22C117.11 160.22 116.648 160.118 116.23 159.916C115.825 159.7 115.502 159.396 115.261 159.004C115.033 158.611 114.919 158.142 114.919 157.598C114.919 156.584 115.369 155.812 116.268 155.28C117.18 154.735 118.618 154.355 120.581 154.14C120.581 153.747 120.524 153.373 120.41 153.019C120.309 152.664 120.119 152.379 119.84 152.164C119.574 151.936 119.188 151.822 118.681 151.822C118.149 151.822 117.649 151.923 117.18 152.126C116.711 152.328 116.293 152.544 115.926 152.772L115.318 151.727C115.609 151.537 115.939 151.353 116.306 151.176C116.686 150.986 117.098 150.834 117.541 150.72C117.984 150.593 118.453 150.53 118.947 150.53C119.707 150.53 120.321 150.688 120.79 151.005C121.259 151.321 121.601 151.765 121.816 152.335C122.044 152.892 122.158 153.557 122.158 154.33V159.992H120.866L120.733 158.89H120.676C120.245 159.244 119.77 159.555 119.251 159.821C118.744 160.087 118.2 160.22 117.617 160.22ZM118.073 158.966C118.516 158.966 118.934 158.858 119.327 158.643C119.72 158.427 120.138 158.123 120.581 157.731V155.166C119.555 155.292 118.738 155.463 118.13 155.679C117.535 155.881 117.104 156.135 116.838 156.439C116.572 156.743 116.439 157.091 116.439 157.484C116.439 158.003 116.597 158.383 116.914 158.624C117.231 158.852 117.617 158.966 118.073 158.966ZM128.73 160.22C127.907 160.22 127.166 160.03 126.507 159.65C125.849 159.27 125.329 158.719 124.949 157.997C124.569 157.275 124.379 156.407 124.379 155.394C124.379 154.355 124.582 153.475 124.987 152.753C125.405 152.031 125.95 151.48 126.621 151.1C127.305 150.72 128.04 150.53 128.825 150.53C129.433 150.53 129.953 150.631 130.383 150.834C130.827 151.036 131.207 151.296 131.523 151.613L130.744 152.563C130.504 152.347 130.231 152.17 129.927 152.031C129.636 151.891 129.288 151.822 128.882 151.822C128.338 151.822 127.844 151.974 127.4 152.278C126.97 152.569 126.628 152.987 126.374 153.532C126.121 154.064 125.994 154.684 125.994 155.394C125.994 156.09 126.115 156.705 126.355 157.237C126.596 157.769 126.932 158.187 127.362 158.491C127.793 158.782 128.293 158.928 128.863 158.928C129.281 158.928 129.674 158.845 130.041 158.681C130.409 158.516 130.732 158.307 131.01 158.054L131.694 159.004C131.314 159.371 130.871 159.669 130.364 159.897C129.87 160.112 129.326 160.22 128.73 160.22ZM133.728 159.992V146.464H135.286V150.15L135.229 152.05C135.673 151.632 136.135 151.277 136.616 150.986C137.11 150.682 137.674 150.53 138.307 150.53C139.283 150.53 139.992 150.84 140.435 151.461C140.891 152.069 141.119 152.962 141.119 154.14V159.992H139.561V154.349C139.561 153.487 139.422 152.86 139.143 152.468C138.865 152.075 138.421 151.879 137.813 151.879C137.345 151.879 136.92 151.999 136.54 152.24C136.173 152.48 135.755 152.835 135.286 153.304V159.992H133.728ZM147.806 160.22C146.983 160.22 146.236 160.03 145.564 159.65C144.893 159.257 144.361 158.7 143.968 157.978C143.576 157.256 143.379 156.394 143.379 155.394C143.379 154.38 143.576 153.513 143.968 152.791C144.374 152.069 144.893 151.511 145.526 151.119C146.16 150.726 146.825 150.53 147.521 150.53C148.307 150.53 148.972 150.707 149.516 151.062C150.074 151.416 150.492 151.917 150.77 152.563C151.062 153.209 151.207 153.975 151.207 154.862C151.207 155.026 151.201 155.191 151.188 155.356C151.188 155.508 151.176 155.641 151.15 155.755H144.519L144.5 154.634H149.839C149.839 153.696 149.637 152.987 149.231 152.506C148.839 152.012 148.281 151.765 147.559 151.765C147.129 151.765 146.704 151.891 146.286 152.145C145.868 152.398 145.526 152.791 145.26 153.323C144.994 153.842 144.861 154.52 144.861 155.356C144.874 156.154 145.02 156.825 145.298 157.37C145.59 157.902 145.97 158.301 146.438 158.567C146.907 158.833 147.426 158.966 147.996 158.966C148.44 158.966 148.851 158.909 149.231 158.795C149.624 158.668 149.979 158.497 150.295 158.282L150.846 159.27C150.454 159.548 150.004 159.776 149.497 159.954C149.003 160.131 148.44 160.22 147.806 160.22ZM155.142 160.163C154.749 160.163 154.433 160.087 154.192 159.935C153.951 159.77 153.774 159.536 153.66 159.232C153.546 158.915 153.489 158.535 153.489 158.092V146.464H155.047V158.206C155.047 158.446 155.091 158.617 155.18 158.719C155.269 158.82 155.376 158.871 155.503 158.871C155.554 158.871 155.598 158.871 155.636 158.871C155.687 158.858 155.75 158.845 155.826 158.833L156.035 160.011C155.934 160.061 155.807 160.099 155.655 160.125C155.503 160.15 155.332 160.163 155.142 160.163ZM161.923 160.22C161.176 160.22 160.473 160.03 159.814 159.65C159.168 159.27 158.642 158.719 158.237 157.997C157.844 157.275 157.648 156.407 157.648 155.394C157.648 154.355 157.844 153.475 158.237 152.753C158.642 152.031 159.168 151.48 159.814 151.1C160.473 150.72 161.176 150.53 161.923 150.53C162.683 150.53 163.386 150.72 164.032 151.1C164.678 151.48 165.197 152.031 165.59 152.753C165.995 153.475 166.198 154.355 166.198 155.394C166.198 156.407 165.995 157.275 165.59 157.997C165.197 158.719 164.678 159.27 164.032 159.65C163.386 160.03 162.683 160.22 161.923 160.22ZM161.923 158.928C162.455 158.928 162.917 158.782 163.31 158.491C163.715 158.187 164.026 157.769 164.241 157.237C164.469 156.705 164.583 156.09 164.583 155.394C164.583 154.684 164.469 154.064 164.241 153.532C164.026 152.987 163.715 152.569 163.31 152.278C162.917 151.974 162.455 151.822 161.923 151.822C161.404 151.822 160.941 151.974 160.536 152.278C160.131 152.569 159.814 152.987 159.586 153.532C159.371 154.064 159.263 154.684 159.263 155.394C159.263 156.09 159.371 156.705 159.586 157.237C159.814 157.769 160.131 158.187 160.536 158.491C160.941 158.782 161.404 158.928 161.923 158.928ZM168.63 159.992V150.758H169.922L170.055 152.43H170.112C170.416 151.847 170.796 151.385 171.252 151.043C171.708 150.701 172.202 150.53 172.734 150.53C172.936 150.53 173.114 150.549 173.266 150.587C173.418 150.612 173.57 150.656 173.722 150.72L173.38 152.05C173.24 152.012 173.107 151.986 172.981 151.974C172.867 151.948 172.715 151.936 172.525 151.936C172.132 151.936 171.72 152.094 171.29 152.411C170.872 152.727 170.504 153.278 170.188 154.064V159.992H168.63ZM181.927 160.163C180.939 160.163 180.249 159.884 179.856 159.327C179.476 158.757 179.286 158.009 179.286 157.085V152.031H177.918V150.853L179.362 150.758L179.552 147.794H180.863V150.758H183.352V152.031H180.863V157.123C180.863 157.68 180.965 158.117 181.167 158.434C181.383 158.738 181.756 158.89 182.288 158.89C182.453 158.89 182.624 158.877 182.801 158.852C182.979 158.814 183.156 158.75 183.333 158.662L183.656 159.764C183.416 159.89 183.143 159.985 182.839 160.049C182.548 160.125 182.244 160.163 181.927 160.163ZM185.44 159.992V146.464H186.998V150.15L186.941 152.05C187.385 151.632 187.847 151.277 188.328 150.986C188.822 150.682 189.386 150.53 190.019 150.53C190.995 150.53 191.704 150.84 192.147 151.461C192.603 152.069 192.831 152.962 192.831 154.14V159.992H191.273V154.349C191.273 153.487 191.134 152.86 190.855 152.468C190.577 152.075 190.133 151.879 189.525 151.879C189.057 151.879 188.632 151.999 188.252 152.24C187.885 152.48 187.467 152.835 186.998 153.304V159.992H185.44ZM199.518 160.22C198.695 160.22 197.948 160.03 197.276 159.65C196.605 159.257 196.073 158.7 195.68 157.978C195.288 157.256 195.091 156.394 195.091 155.394C195.091 154.38 195.288 153.513 195.68 152.791C196.086 152.069 196.605 151.511 197.238 151.119C197.872 150.726 198.537 150.53 199.233 150.53C200.019 150.53 200.684 150.707 201.228 151.062C201.786 151.416 202.204 151.917 202.482 152.563C202.774 153.209 202.919 153.975 202.919 154.862C202.919 155.026 202.913 155.191 202.9 155.356C202.9 155.508 202.888 155.641 202.862 155.755H196.231L196.212 154.634H201.551C201.551 153.696 201.349 152.987 200.943 152.506C200.551 152.012 199.993 151.765 199.271 151.765C198.841 151.765 198.416 151.891 197.998 152.145C197.58 152.398 197.238 152.791 196.972 153.323C196.706 153.842 196.573 154.52 196.573 155.356C196.586 156.154 196.732 156.825 197.01 157.37C197.302 157.902 197.682 158.301 198.15 158.567C198.619 158.833 199.138 158.966 199.708 158.966C200.152 158.966 200.563 158.909 200.943 158.795C201.336 158.668 201.691 158.497 202.007 158.282L202.558 159.27C202.166 159.548 201.716 159.776 201.209 159.954C200.715 160.131 200.152 160.22 199.518 160.22ZM207.614 160.22C206.943 160.22 206.309 160.106 205.714 159.878C205.119 159.637 204.606 159.308 204.175 158.89L204.897 157.978C205.302 158.307 205.72 158.56 206.151 158.738C206.594 158.915 207.101 159.004 207.671 159.004C208.279 159.004 208.735 158.864 209.039 158.586C209.343 158.294 209.495 157.952 209.495 157.56C209.495 157.243 209.394 156.983 209.191 156.781C208.988 156.565 208.729 156.388 208.412 156.249C208.095 156.097 207.76 155.957 207.405 155.831C206.949 155.666 206.512 155.476 206.094 155.261C205.676 155.033 205.334 154.754 205.068 154.425C204.815 154.083 204.688 153.658 204.688 153.152C204.688 152.404 204.967 151.784 205.524 151.29C206.094 150.783 206.879 150.53 207.88 150.53C208.45 150.53 208.982 150.631 209.476 150.834C209.97 151.024 210.394 151.271 210.749 151.575L210.027 152.468C209.71 152.24 209.375 152.062 209.02 151.936C208.678 151.809 208.298 151.746 207.88 151.746C207.297 151.746 206.867 151.879 206.588 152.145C206.322 152.411 206.189 152.721 206.189 153.076C206.189 153.354 206.271 153.589 206.436 153.779C206.601 153.956 206.829 154.114 207.12 154.254C207.424 154.38 207.766 154.513 208.146 154.653C208.627 154.817 209.083 155.014 209.514 155.242C209.957 155.47 210.312 155.761 210.578 156.116C210.857 156.458 210.996 156.907 210.996 157.465C210.996 157.959 210.863 158.415 210.597 158.833C210.344 159.251 209.964 159.586 209.457 159.84C208.963 160.093 208.349 160.22 207.614 160.22ZM213.161 159.992V150.758H214.719V159.992H213.161ZM213.94 148.858C213.636 148.858 213.383 148.769 213.18 148.592C212.99 148.402 212.895 148.148 212.895 147.832C212.895 147.528 212.99 147.281 213.18 147.091C213.383 146.901 213.636 146.806 213.94 146.806C214.244 146.806 214.491 146.901 214.681 147.091C214.884 147.281 214.985 147.528 214.985 147.832C214.985 148.148 214.884 148.402 214.681 148.592C214.491 148.769 214.244 148.858 213.94 148.858ZM220.25 160.22C219.578 160.22 218.945 160.106 218.35 159.878C217.754 159.637 217.241 159.308 216.811 158.89L217.533 157.978C217.938 158.307 218.356 158.56 218.787 158.738C219.23 158.915 219.737 159.004 220.307 159.004C220.915 159.004 221.371 158.864 221.675 158.586C221.979 158.294 222.131 157.952 222.131 157.56C222.131 157.243 222.029 156.983 221.827 156.781C221.624 156.565 221.364 156.388 221.048 156.249C220.731 156.097 220.395 155.957 220.041 155.831C219.585 155.666 219.148 155.476 218.73 155.261C218.312 155.033 217.97 154.754 217.704 154.425C217.45 154.083 217.324 153.658 217.324 153.152C217.324 152.404 217.602 151.784 218.16 151.29C218.73 150.783 219.515 150.53 220.516 150.53C221.086 150.53 221.618 150.631 222.112 150.834C222.606 151.024 223.03 151.271 223.385 151.575L222.663 152.468C222.346 152.24 222.01 152.062 221.656 151.936C221.314 151.809 220.934 151.746 220.516 151.746C219.933 151.746 219.502 151.879 219.224 152.145C218.958 152.411 218.825 152.721 218.825 153.076C218.825 153.354 218.907 153.589 219.072 153.779C219.236 153.956 219.464 154.114 219.756 154.254C220.06 154.38 220.402 154.513 220.782 154.653C221.263 154.817 221.719 155.014 222.15 155.242C222.593 155.47 222.948 155.761 223.214 156.116C223.492 156.458 223.632 156.907 223.632 157.465C223.632 157.959 223.499 158.415 223.233 158.833C222.979 159.251 222.599 159.586 222.093 159.84C221.599 160.093 220.984 160.22 220.25 160.22ZM107.152 183.336C106.367 182.056 105.752 180.72 105.309 179.327C104.866 177.921 104.644 176.382 104.644 174.71C104.644 173.038 104.866 171.499 105.309 170.093C105.752 168.687 106.367 167.35 107.152 166.084L108.121 166.54C107.386 167.743 106.835 169.048 106.468 170.454C106.113 171.847 105.936 173.266 105.936 174.71C105.936 176.154 106.113 177.579 106.468 178.985C106.835 180.378 107.386 181.676 108.121 182.88L107.152 183.336ZM115.279 180.22C114.24 180.22 113.309 179.966 112.486 179.46C111.663 178.94 111.01 178.199 110.529 177.237C110.06 176.274 109.826 175.115 109.826 173.76C109.826 172.759 109.965 171.86 110.244 171.062C110.523 170.264 110.909 169.586 111.403 169.029C111.897 168.471 112.48 168.047 113.151 167.756C113.822 167.452 114.557 167.3 115.355 167.3C116.102 167.3 116.767 167.452 117.35 167.756C117.945 168.047 118.42 168.408 118.775 168.839L117.92 169.808C117.591 169.453 117.211 169.181 116.78 168.991C116.362 168.788 115.893 168.687 115.374 168.687C114.601 168.687 113.917 168.896 113.322 169.314C112.739 169.719 112.283 170.295 111.954 171.043C111.625 171.79 111.46 172.683 111.46 173.722C111.46 174.76 111.618 175.666 111.935 176.439C112.264 177.199 112.72 177.788 113.303 178.206C113.898 178.624 114.595 178.833 115.393 178.833C115.976 178.833 116.495 178.725 116.951 178.51C117.42 178.282 117.85 177.952 118.243 177.522L119.06 178.434C118.553 179.004 117.996 179.447 117.388 179.764C116.793 180.068 116.09 180.22 115.279 180.22ZM124.841 180.22C124.094 180.22 123.391 180.03 122.732 179.65C122.086 179.27 121.561 178.719 121.155 177.997C120.763 177.275 120.566 176.407 120.566 175.394C120.566 174.355 120.763 173.475 121.155 172.753C121.561 172.031 122.086 171.48 122.732 171.1C123.391 170.72 124.094 170.53 124.841 170.53C125.601 170.53 126.304 170.72 126.95 171.1C127.596 171.48 128.116 172.031 128.508 172.753C128.914 173.475 129.116 174.355 129.116 175.394C129.116 176.407 128.914 177.275 128.508 177.997C128.116 178.719 127.596 179.27 126.95 179.65C126.304 180.03 125.601 180.22 124.841 180.22ZM124.841 178.928C125.373 178.928 125.836 178.782 126.228 178.491C126.634 178.187 126.944 177.769 127.159 177.237C127.387 176.705 127.501 176.09 127.501 175.394C127.501 174.684 127.387 174.064 127.159 173.532C126.944 172.987 126.634 172.569 126.228 172.278C125.836 171.974 125.373 171.822 124.841 171.822C124.322 171.822 123.86 171.974 123.454 172.278C123.049 172.569 122.732 172.987 122.504 173.532C122.289 174.064 122.181 174.684 122.181 175.394C122.181 176.09 122.289 176.705 122.504 177.237C122.732 177.769 123.049 178.187 123.454 178.491C123.86 178.782 124.322 178.928 124.841 178.928ZM131.548 179.992V170.758H132.84L132.973 172.088H133.03C133.436 171.644 133.879 171.277 134.36 170.986C134.842 170.682 135.355 170.53 135.899 170.53C136.609 170.53 137.16 170.688 137.552 171.005C137.958 171.309 138.255 171.739 138.445 172.297C138.927 171.777 139.414 171.353 139.908 171.024C140.402 170.694 140.928 170.53 141.485 170.53C142.435 170.53 143.138 170.84 143.594 171.461C144.063 172.069 144.297 172.962 144.297 174.14V179.992H142.739V174.349C142.739 173.487 142.6 172.86 142.321 172.468C142.043 172.075 141.612 171.879 141.029 171.879C140.675 171.879 140.307 171.999 139.927 172.24C139.547 172.468 139.142 172.822 138.711 173.304V179.992H137.153V174.349C137.153 173.487 137.014 172.86 136.735 172.468C136.457 172.075 136.02 171.879 135.424 171.879C134.74 171.879 133.968 172.354 133.106 173.304V179.992H131.548ZM147.301 179.992V170.758H148.859V179.992H147.301ZM148.08 168.858C147.776 168.858 147.523 168.769 147.32 168.592C147.13 168.402 147.035 168.148 147.035 167.832C147.035 167.528 147.13 167.281 147.32 167.091C147.523 166.901 147.776 166.806 148.08 166.806C148.384 166.806 148.631 166.901 148.821 167.091C149.024 167.281 149.125 167.528 149.125 167.832C149.125 168.148 149.024 168.402 148.821 168.592C148.631 168.769 148.384 168.858 148.08 168.858ZM151.977 179.992V170.758H153.269L153.402 172.088H153.459C153.902 171.644 154.371 171.277 154.865 170.986C155.359 170.682 155.923 170.53 156.556 170.53C157.531 170.53 158.241 170.84 158.684 171.461C159.14 172.069 159.368 172.962 159.368 174.14V179.992H157.81V174.349C157.81 173.487 157.671 172.86 157.392 172.468C157.113 172.075 156.67 171.879 156.062 171.879C155.593 171.879 155.169 171.999 154.789 172.24C154.422 172.48 154.004 172.835 153.535 173.304V179.992H151.977ZM165.484 184.248C164.736 184.248 164.071 184.146 163.489 183.944C162.919 183.754 162.469 183.475 162.14 183.108C161.823 182.74 161.665 182.291 161.665 181.759C161.665 181.366 161.785 180.986 162.026 180.619C162.266 180.264 162.596 179.947 163.014 179.669V179.593C162.786 179.453 162.589 179.257 162.425 179.004C162.273 178.75 162.197 178.446 162.197 178.092C162.197 177.699 162.304 177.357 162.52 177.066C162.735 176.774 162.963 176.546 163.204 176.382V176.306C162.9 176.052 162.621 175.71 162.368 175.28C162.127 174.849 162.007 174.361 162.007 173.817C162.007 173.145 162.165 172.563 162.482 172.069C162.798 171.575 163.223 171.195 163.755 170.929C164.287 170.663 164.863 170.53 165.484 170.53C165.737 170.53 165.978 170.555 166.206 170.606C166.434 170.644 166.63 170.694 166.795 170.758H170.006V171.955H168.087V172.031C168.302 172.233 168.486 172.487 168.638 172.791C168.79 173.095 168.866 173.456 168.866 173.874C168.866 174.52 168.714 175.083 168.41 175.565C168.106 176.046 167.7 176.42 167.194 176.686C166.687 176.939 166.117 177.066 165.484 177.066C165.256 177.066 165.021 177.04 164.781 176.99C164.54 176.926 164.312 176.844 164.097 176.743C163.932 176.882 163.793 177.04 163.679 177.218C163.565 177.382 163.508 177.591 163.508 177.845C163.508 178.136 163.622 178.377 163.85 178.567C164.09 178.757 164.521 178.852 165.142 178.852H166.928C168.004 178.852 168.809 179.029 169.341 179.384C169.885 179.726 170.158 180.283 170.158 181.056C170.158 181.626 169.968 182.151 169.588 182.633C169.208 183.114 168.669 183.5 167.973 183.792C167.276 184.096 166.446 184.248 165.484 184.248ZM165.484 176.021C165.838 176.021 166.161 175.932 166.453 175.755C166.757 175.577 166.997 175.324 167.175 174.995C167.352 174.653 167.441 174.26 167.441 173.817C167.441 173.145 167.251 172.62 166.871 172.24C166.491 171.86 166.028 171.67 165.484 171.67C164.939 171.67 164.477 171.86 164.097 172.24C163.717 172.62 163.527 173.145 163.527 173.817C163.527 174.26 163.615 174.653 163.793 174.995C163.97 175.324 164.204 175.577 164.496 175.755C164.8 175.932 165.129 176.021 165.484 176.021ZM165.712 183.165C166.307 183.165 166.82 183.076 167.251 182.899C167.694 182.721 168.036 182.487 168.277 182.196C168.517 181.904 168.638 181.6 168.638 181.284C168.638 180.853 168.473 180.555 168.144 180.391C167.827 180.226 167.371 180.144 166.776 180.144H165.18C165.002 180.144 164.806 180.131 164.591 180.106C164.388 180.08 164.185 180.042 163.983 179.992C163.653 180.232 163.413 180.486 163.261 180.752C163.109 181.018 163.033 181.284 163.033 181.55C163.033 182.044 163.267 182.436 163.736 182.728C164.217 183.019 164.876 183.165 165.712 183.165ZM178.159 180.22C177.487 180.22 176.854 180.106 176.259 179.878C175.663 179.637 175.15 179.308 174.72 178.89L175.441 177.978C175.847 178.307 176.265 178.56 176.695 178.738C177.139 178.915 177.646 179.004 178.216 179.004C178.824 179.004 179.28 178.864 179.584 178.586C179.888 178.294 180.04 177.952 180.04 177.56C180.04 177.243 179.938 176.983 179.736 176.781C179.533 176.565 179.273 176.388 178.957 176.249C178.64 176.097 178.304 175.957 177.95 175.831C177.494 175.666 177.057 175.476 176.639 175.261C176.221 175.033 175.879 174.754 175.613 174.425C175.359 174.083 175.233 173.658 175.233 173.152C175.233 172.404 175.511 171.784 176.069 171.29C176.639 170.783 177.424 170.53 178.425 170.53C178.995 170.53 179.527 170.631 180.021 170.834C180.515 171.024 180.939 171.271 181.294 171.575L180.572 172.468C180.255 172.24 179.919 172.062 179.565 171.936C179.223 171.809 178.843 171.746 178.425 171.746C177.842 171.746 177.411 171.879 177.133 172.145C176.867 172.411 176.734 172.721 176.734 173.076C176.734 173.354 176.816 173.589 176.98 173.779C177.145 173.956 177.373 174.114 177.665 174.254C177.969 174.38 178.311 174.513 178.691 174.653C179.172 174.817 179.628 175.014 180.059 175.242C180.502 175.47 180.857 175.761 181.123 176.116C181.401 176.458 181.541 176.907 181.541 177.465C181.541 177.959 181.408 178.415 181.142 178.833C180.888 179.251 180.508 179.586 180.002 179.84C179.508 180.093 178.893 180.22 178.159 180.22ZM183.705 183.887V170.758H184.997L185.13 171.822H185.187C185.605 171.467 186.061 171.163 186.555 170.91C187.062 170.656 187.588 170.53 188.132 170.53C188.93 170.53 189.595 170.726 190.127 171.119C190.672 171.499 191.084 172.043 191.362 172.753C191.641 173.449 191.78 174.279 191.78 175.242C191.78 176.28 191.59 177.173 191.21 177.921C190.843 178.668 190.355 179.238 189.747 179.631C189.152 180.023 188.5 180.22 187.79 180.22C187.36 180.22 186.929 180.125 186.498 179.935C186.08 179.745 185.656 179.485 185.225 179.156L185.263 180.771V183.887H183.705ZM187.524 178.909C188.031 178.909 188.481 178.763 188.873 178.472C189.279 178.18 189.595 177.762 189.823 177.218C190.051 176.66 190.165 176.002 190.165 175.242C190.165 174.558 190.083 173.962 189.918 173.456C189.754 172.949 189.494 172.556 189.139 172.278C188.785 171.986 188.316 171.841 187.733 171.841C187.341 171.841 186.942 171.948 186.536 172.164C186.144 172.379 185.719 172.689 185.263 173.095V177.94C185.681 178.294 186.087 178.548 186.479 178.7C186.872 178.839 187.22 178.909 187.524 178.909ZM194.245 179.992V170.758H195.537L195.67 172.43H195.727C196.031 171.847 196.411 171.385 196.867 171.043C197.323 170.701 197.817 170.53 198.349 170.53C198.551 170.53 198.729 170.549 198.881 170.587C199.033 170.612 199.185 170.656 199.337 170.72L198.995 172.05C198.855 172.012 198.722 171.986 198.596 171.974C198.482 171.948 198.33 171.936 198.14 171.936C197.747 171.936 197.335 172.094 196.905 172.411C196.487 172.727 196.119 173.278 195.803 174.064V179.992H194.245ZM200.831 179.992V170.758H202.389V179.992H200.831ZM201.61 168.858C201.306 168.858 201.053 168.769 200.85 168.592C200.66 168.402 200.565 168.148 200.565 167.832C200.565 167.528 200.66 167.281 200.85 167.091C201.053 166.901 201.306 166.806 201.61 166.806C201.914 166.806 202.161 166.901 202.351 167.091C202.554 167.281 202.655 167.528 202.655 167.832C202.655 168.148 202.554 168.402 202.351 168.592C202.161 168.769 201.914 168.858 201.61 168.858ZM205.507 179.992V170.758H206.799L206.932 172.088H206.989C207.433 171.644 207.901 171.277 208.395 170.986C208.889 170.682 209.453 170.53 210.086 170.53C211.062 170.53 211.771 170.84 212.214 171.461C212.67 172.069 212.898 172.962 212.898 174.14V179.992H211.34V174.349C211.34 173.487 211.201 172.86 210.922 172.468C210.644 172.075 210.2 171.879 209.592 171.879C209.124 171.879 208.699 171.999 208.319 172.24C207.952 172.48 207.534 172.835 207.065 173.304V179.992H205.507ZM219.014 184.248C218.267 184.248 217.602 184.146 217.019 183.944C216.449 183.754 215.999 183.475 215.67 183.108C215.353 182.74 215.195 182.291 215.195 181.759C215.195 181.366 215.315 180.986 215.556 180.619C215.797 180.264 216.126 179.947 216.544 179.669V179.593C216.316 179.453 216.12 179.257 215.955 179.004C215.803 178.75 215.727 178.446 215.727 178.092C215.727 177.699 215.835 177.357 216.05 177.066C216.265 176.774 216.493 176.546 216.734 176.382V176.306C216.43 176.052 216.151 175.71 215.898 175.28C215.657 174.849 215.537 174.361 215.537 173.817C215.537 173.145 215.695 172.563 216.012 172.069C216.329 171.575 216.753 171.195 217.285 170.929C217.817 170.663 218.393 170.53 219.014 170.53C219.267 170.53 219.508 170.555 219.736 170.606C219.964 170.644 220.16 170.694 220.325 170.758H223.536V171.955H221.617V172.031C221.832 172.233 222.016 172.487 222.168 172.791C222.32 173.095 222.396 173.456 222.396 173.874C222.396 174.52 222.244 175.083 221.94 175.565C221.636 176.046 221.231 176.42 220.724 176.686C220.217 176.939 219.647 177.066 219.014 177.066C218.786 177.066 218.552 177.04 218.311 176.99C218.07 176.926 217.842 176.844 217.627 176.743C217.462 176.882 217.323 177.04 217.209 177.218C217.095 177.382 217.038 177.591 217.038 177.845C217.038 178.136 217.152 178.377 217.38 178.567C217.621 178.757 218.051 178.852 218.672 178.852H220.458C221.535 178.852 222.339 179.029 222.871 179.384C223.416 179.726 223.688 180.283 223.688 181.056C223.688 181.626 223.498 182.151 223.118 182.633C222.738 183.114 222.2 183.5 221.503 183.792C220.806 184.096 219.977 184.248 219.014 184.248ZM219.014 176.021C219.369 176.021 219.692 175.932 219.983 175.755C220.287 175.577 220.528 175.324 220.705 174.995C220.882 174.653 220.971 174.26 220.971 173.817C220.971 173.145 220.781 172.62 220.401 172.24C220.021 171.86 219.559 171.67 219.014 171.67C218.469 171.67 218.007 171.86 217.627 172.24C217.247 172.62 217.057 173.145 217.057 173.817C217.057 174.26 217.146 174.653 217.323 174.995C217.5 175.324 217.735 175.577 218.026 175.755C218.33 175.932 218.659 176.021 219.014 176.021ZM219.242 183.165C219.837 183.165 220.35 183.076 220.781 182.899C221.224 182.721 221.566 182.487 221.807 182.196C222.048 181.904 222.168 181.6 222.168 181.284C222.168 180.853 222.003 180.555 221.674 180.391C221.357 180.226 220.901 180.144 220.306 180.144H218.71C218.533 180.144 218.336 180.131 218.121 180.106C217.918 180.08 217.716 180.042 217.513 179.992C217.184 180.232 216.943 180.486 216.791 180.752C216.639 181.018 216.563 181.284 216.563 181.55C216.563 182.044 216.797 182.436 217.266 182.728C217.747 183.019 218.406 183.165 219.242 183.165ZM142.495 199.992V199.042C143.711 197.851 144.744 196.8 145.592 195.888C146.441 194.963 147.087 194.127 147.53 193.38C147.974 192.632 148.195 191.936 148.195 191.29C148.195 190.593 148.005 190.023 147.625 189.58C147.245 189.136 146.669 188.915 145.896 188.915C145.39 188.915 144.921 189.06 144.49 189.352C144.06 189.63 143.667 189.972 143.312 190.378L142.438 189.523C142.945 188.953 143.483 188.497 144.053 188.155C144.636 187.813 145.314 187.642 146.086 187.642C146.834 187.642 147.48 187.794 148.024 188.098C148.569 188.389 148.987 188.801 149.278 189.333C149.57 189.865 149.715 190.485 149.715 191.195C149.715 191.98 149.494 192.759 149.05 193.532C148.62 194.304 148.024 195.115 147.264 195.964C146.504 196.812 145.63 197.743 144.642 198.757C144.972 198.731 145.314 198.706 145.668 198.681C146.023 198.655 146.359 198.643 146.675 198.643H150.323V199.992H142.495ZM155.911 200.22C154.695 200.22 153.738 199.675 153.042 198.586C152.358 197.484 152.016 195.919 152.016 193.893C152.016 191.853 152.358 190.302 153.042 189.238C153.738 188.174 154.695 187.642 155.911 187.642C157.114 187.642 158.058 188.174 158.742 189.238C159.438 190.302 159.787 191.853 159.787 193.893C159.787 195.919 159.438 197.484 158.742 198.586C158.058 199.675 157.114 200.22 155.911 200.22ZM155.911 198.966C156.379 198.966 156.791 198.788 157.146 198.434C157.5 198.079 157.773 197.528 157.963 196.781C158.165 196.033 158.267 195.071 158.267 193.893C158.267 192.702 158.165 191.746 157.963 191.024C157.773 190.289 157.5 189.751 157.146 189.409C156.791 189.067 156.379 188.896 155.911 188.896C155.442 188.896 155.024 189.067 154.657 189.409C154.302 189.751 154.023 190.289 153.821 191.024C153.631 191.746 153.536 192.702 153.536 193.893C153.536 195.071 153.631 196.033 153.821 196.781C154.023 197.528 154.302 198.079 154.657 198.434C155.024 198.788 155.442 198.966 155.911 198.966ZM161.384 199.992V199.042C162.6 197.851 163.632 196.8 164.481 195.888C165.33 194.963 165.976 194.127 166.419 193.38C166.862 192.632 167.084 191.936 167.084 191.29C167.084 190.593 166.894 190.023 166.514 189.58C166.134 189.136 165.558 188.915 164.785 188.915C164.278 188.915 163.81 189.06 163.379 189.352C162.948 189.63 162.556 189.972 162.201 190.378L161.327 189.523C161.834 188.953 162.372 188.497 162.942 188.155C163.525 187.813 164.202 187.642 164.975 187.642C165.722 187.642 166.368 187.794 166.913 188.098C167.458 188.389 167.876 188.801 168.167 189.333C168.458 189.865 168.604 190.485 168.604 191.195C168.604 191.98 168.382 192.759 167.939 193.532C167.508 194.304 166.913 195.115 166.153 195.964C165.393 196.812 164.519 197.743 163.531 198.757C163.86 198.731 164.202 198.706 164.557 198.681C164.912 198.655 165.247 198.643 165.564 198.643H169.212V199.992H161.384ZM175.16 200.22C174.565 200.22 174.014 200.099 173.507 199.859C173.001 199.618 172.557 199.257 172.177 198.776C171.797 198.282 171.5 197.674 171.284 196.952C171.082 196.217 170.98 195.362 170.98 194.387C170.98 193.171 171.107 192.138 171.36 191.29C171.614 190.428 171.956 189.732 172.386 189.2C172.817 188.655 173.305 188.262 173.849 188.022C174.407 187.768 174.989 187.642 175.597 187.642C176.256 187.642 176.82 187.768 177.288 188.022C177.77 188.262 178.181 188.566 178.523 188.934L177.649 189.903C177.409 189.611 177.111 189.383 176.756 189.219C176.402 189.041 176.034 188.953 175.654 188.953C175.084 188.953 174.552 189.124 174.058 189.466C173.577 189.808 173.191 190.378 172.899 191.176C172.608 191.961 172.462 193.031 172.462 194.387C172.462 195.375 172.564 196.211 172.766 196.895C172.982 197.579 173.292 198.098 173.697 198.453C174.103 198.807 174.59 198.985 175.16 198.985C175.566 198.985 175.927 198.877 176.243 198.662C176.56 198.434 176.807 198.123 176.984 197.731C177.174 197.325 177.269 196.857 177.269 196.325C177.269 195.793 177.187 195.337 177.022 194.957C176.858 194.577 176.611 194.285 176.281 194.083C175.952 193.867 175.534 193.76 175.027 193.76C174.635 193.76 174.204 193.893 173.735 194.159C173.279 194.412 172.842 194.849 172.424 195.47L172.367 194.235C172.747 193.728 173.203 193.329 173.735 193.038C174.267 192.734 174.787 192.582 175.293 192.582C175.99 192.582 176.598 192.721 177.117 193C177.637 193.278 178.036 193.696 178.314 194.254C178.606 194.798 178.751 195.489 178.751 196.325C178.751 197.097 178.587 197.775 178.257 198.358C177.928 198.94 177.491 199.396 176.946 199.726C176.414 200.055 175.819 200.22 175.16 200.22ZM181.204 203.336L180.235 202.88C180.969 201.676 181.514 200.378 181.869 198.985C182.236 197.579 182.42 196.154 182.42 194.71C182.42 193.266 182.236 191.847 181.869 190.454C181.514 189.048 180.969 187.743 180.235 186.54L181.204 186.084C181.989 187.35 182.603 188.687 183.047 190.093C183.49 191.499 183.712 193.038 183.712 194.71C183.712 196.382 183.49 197.921 183.047 199.327C182.603 200.72 181.989 202.056 181.204 203.336Z" fill="#1B1B1B"/>
</svg>
